<svg width="20" height="20" viewBox="0 0 20 20" fill="none" xmlns="http://www.w3.org/2000/svg">
<path fill-rule="evenodd" clip-rule="evenodd" d="M7.95739 1.0415H7.87587C6.54065 1.04149 5.48285 1.04149 4.646 1.1404C3.78686 1.24196 3.07961 1.45516 2.48882 1.94C2.28839 2.10449 2.10461 2.28827 1.94013 2.4887C1.45528 3.07949 1.24208 3.78674 1.14053 4.64588C1.04161 5.48273 1.04162 6.54053 1.04163 7.87575V7.95726C1.04162 9.29248 1.04161 10.3503 1.14053 11.1871C1.24208 12.0463 1.45528 12.7535 1.94013 13.3443C2.10461 13.5447 2.28839 13.7285 2.48882 13.893C3.04871 14.3525 3.7132 14.568 4.51282 14.6758C5.16188 14.7632 5.94316 14.7844 6.88388 14.7897C6.89474 15.3081 6.91879 15.7634 6.97206 16.1596C7.07291 16.9097 7.28865 17.5413 7.79025 18.0429C8.29185 18.5445 8.92341 18.7602 9.6735 18.8611C10.396 18.9582 11.3146 18.9582 12.4542 18.9582H13.379C14.5187 18.9582 15.4373 18.9582 16.1598 18.8611C16.9098 18.7602 17.5414 18.5445 18.043 18.0429C18.5446 17.5413 18.7603 16.9097 18.8612 16.1596C18.9583 15.4372 18.9583 14.5186 18.9583 13.3789V12.4541C18.9583 11.3145 18.9583 10.3959 18.8612 9.67338C18.7603 8.92329 18.5446 8.29173 18.043 7.79013C17.5414 7.28853 16.9098 7.07279 16.1598 6.97194C15.7635 6.91866 15.3082 6.89462 14.7898 6.88376C14.7846 5.94304 14.7634 5.16176 14.6759 4.5127C14.5682 3.71308 14.3526 3.04859 13.8931 2.4887C13.7286 2.28827 13.5449 2.10449 13.3444 1.94C12.7536 1.45516 12.0464 1.24196 11.1873 1.1404C10.3504 1.04149 9.29261 1.04149 7.95739 1.0415ZM13.5397 6.87485C13.5342 5.94969 13.5134 5.24554 13.4371 4.67964C13.3464 4.00649 13.1846 3.59578 12.9269 3.28169C12.8143 3.14456 12.6886 3.01881 12.5514 2.90627C12.2203 2.63448 11.7817 2.46937 11.0405 2.38176C10.2856 2.29253 9.30172 2.2915 7.91663 2.2915C6.53153 2.2915 5.54766 2.29253 4.79273 2.38176C4.0516 2.46937 3.61298 2.63448 3.28181 2.90627C3.14468 3.01881 3.01893 3.14456 2.90639 3.28169C2.63461 3.61286 2.46949 4.05148 2.38188 4.79261C2.29265 5.54754 2.29163 6.53141 2.29163 7.9165C2.29163 9.3016 2.29265 10.2855 2.38188 11.0404C2.46949 11.7815 2.63461 12.2201 2.90639 12.5513C3.01893 12.6885 3.14468 12.8142 3.28181 12.9267C3.5959 13.1845 4.00661 13.3463 4.67976 13.437C5.24566 13.5132 5.94981 13.534 6.87497 13.5396C6.87496 13.4865 6.87496 13.433 6.87496 13.3789V12.4541C6.87494 11.3145 6.87493 10.3959 6.97206 9.67338C7.07291 8.92329 7.28866 8.29173 7.79025 7.79013C8.29185 7.28853 8.92341 7.07279 9.6735 6.97194C10.396 6.87481 11.3146 6.87482 12.4542 6.87484H13.379C13.4331 6.87484 13.4866 6.87484 13.5397 6.87485ZM8.67414 8.67401C8.90477 8.44338 9.22858 8.293 9.84006 8.21079C10.4695 8.12616 11.3038 8.12484 12.5 8.12484H13.3333C14.5295 8.12484 15.3637 8.12617 15.9932 8.21079C16.6047 8.29301 16.9285 8.44338 17.1591 8.67401C17.3898 8.90465 17.5401 9.22846 17.6223 9.83994C17.707 10.4694 17.7083 11.3037 17.7083 12.4998V13.3332C17.7083 14.5294 17.707 15.3636 17.6223 15.9931C17.5401 16.6045 17.3898 16.9284 17.1591 17.159C16.9285 17.3896 16.6047 17.54 15.9932 17.6222C15.3637 17.7068 14.5295 17.7082 13.3333 17.7082H12.5C11.3038 17.7082 10.4695 17.7068 9.84006 17.6222C9.22858 17.54 8.90477 17.3896 8.67413 17.159C8.4435 16.9284 8.29313 16.6045 8.21092 15.9931C8.12629 15.3636 8.12496 14.5293 8.12496 13.3332V12.4998C8.12496 11.3037 8.12629 10.4694 8.21092 9.83994C8.29313 9.22846 8.4435 8.90465 8.67414 8.67401Z" fill="#2E3192"/>
</svg>
