<svg width="64" height="64" viewBox="0 0 64 64" fill="none" xmlns="http://www.w3.org/2000/svg">
<path d="M26.6666 20.6667C25.562 20.6667 24.6666 21.5621 24.6666 22.6667C24.6666 23.7712 25.562 24.6667 26.6666 24.6667H37.3333C38.4378 24.6667 39.3333 23.7712 39.3333 22.6667C39.3333 21.5621 38.4378 20.6667 37.3333 20.6667H26.6666Z" fill="#2E3192"/>
<path fill-rule="evenodd" clip-rule="evenodd" d="M24.6203 6.00004C22.5947 5.99956 21.239 5.99925 19.9378 6.31689C19.3487 6.46072 18.7732 6.65268 18.2183 6.89104C16.9866 7.42009 15.9342 8.2307 14.3874 9.4221L14.1139 9.63275C11.324 11.7805 9.11316 13.4824 7.48783 15.008C5.82685 16.567 4.60235 18.0973 3.96008 19.9651C3.43282 21.4985 3.23445 23.1159 3.37917 24.7249C3.55608 26.6918 4.38877 28.4476 5.63861 30.3139C6.85867 32.1358 8.60701 34.2472 10.8063 36.9031L21.6272 49.9712C23.5911 52.3431 25.2057 54.2931 26.6876 55.629C28.2436 57.0318 29.9114 58.0001 31.9999 58.0001C34.0884 58.0001 35.7563 57.0318 37.3123 55.629C38.7941 54.2931 40.4087 52.3431 42.3727 49.9712L53.1936 36.903C55.3929 34.2471 57.1412 32.1358 58.3612 30.3139C59.6111 28.4476 60.4438 26.6918 60.6207 24.7249C60.7654 23.1159 60.567 21.4985 60.0397 19.9651C59.3975 18.0973 58.173 16.567 56.512 15.008C54.8867 13.4824 52.6759 11.7805 49.886 9.63281L49.6124 9.42211C48.0657 8.23071 47.0132 7.42009 45.7816 6.89104C45.2266 6.65268 44.6512 6.46072 44.062 6.31689C42.7608 5.99925 41.4051 5.99956 39.3795 6.00004H24.6203ZM20.8865 10.2028C21.6625 10.0133 22.5081 10.0001 24.861 10.0001H39.1389C41.4917 10.0001 42.3373 10.0133 43.1134 10.2028C43.4891 10.2945 43.8537 10.4163 44.2029 10.5663C44.916 10.8726 45.5565 11.3478 47.3606 12.7367C50.2549 14.9647 52.3089 16.5488 53.7745 17.9245C55.221 19.2822 55.9182 20.2803 56.2571 21.2658C56.6027 22.2709 56.7306 23.3231 56.6367 24.3665C56.5455 25.3811 56.1144 26.4804 55.0377 28.0882C53.9443 29.7209 52.3279 31.6768 50.0416 34.4379L39.3923 47.2986C37.3025 49.8224 35.8724 51.5416 34.6339 52.6581C33.4442 53.7307 32.6953 54.0001 31.9999 54.0001C31.3045 54.0001 30.5556 53.7307 29.366 52.6581C28.1274 51.5416 26.6973 49.8224 24.6075 47.2986L13.9583 34.4379C11.672 31.6768 10.0556 29.7209 8.96218 28.0882C7.88548 26.4804 7.45434 25.3811 7.36309 24.3665C7.26924 23.3231 7.39709 22.2709 7.7427 21.2658C8.0816 20.2803 8.7788 19.2822 10.2253 17.9245C11.691 16.5488 13.745 14.9647 16.6392 12.7367C18.4434 11.3478 19.0839 10.8726 19.7969 10.5663C20.1461 10.4163 20.5108 10.2945 20.8865 10.2028Z" fill="#2E3192"/>
</svg>
