<svg width="186" height="88" viewBox="0 0 186 88" fill="none" xmlns="http://www.w3.org/2000/svg">
<g clip-path="url(#clip0_89_4660)">
<path d="M42.4888 16.5507L46.8658 17.4124L56.7419 3.24352L81.9662 5.10461L54.1876 0L42.4888 16.5507Z" fill="white"/>
<path d="M48.1754 17.6691L52.6865 18.5575L60.5329 7.14586L85.137 9.2597L57.3239 3.82959L48.1754 17.6691Z" fill="white"/>
<path d="M53.9579 18.8099L56.7419 19.3575L63.4472 10.6073L84.1184 12.5756L61.7354 7.65479L53.9579 18.8099Z" fill="white"/>
<path d="M81.1774 33.8636L76.8004 33.002L66.9243 47.1708L41.7 45.3097L69.4747 50.4143L81.1774 33.8636Z" fill="white"/>
<path d="M75.4869 32.7454L70.9797 31.8569L63.1332 43.2686L38.5292 41.1548L66.3422 46.5849L75.4869 32.7454Z" fill="white"/>
<path d="M69.7082 31.6042L66.9242 31.0566L60.2189 39.8069L39.5477 37.8385L61.9307 42.7593L69.7082 31.6042Z" fill="white"/>
<path d="M74.0201 25.7527L45.3684 20.7783L42.8142 17.9521L71.1825 22.9304L74.0201 25.7527Z" fill="white"/>
<path d="M77.4628 29.2185L48.815 24.2441L46.2607 21.418L74.6291 26.3924L77.4628 29.2185Z" fill="white"/>
<path d="M80.9094 32.6843L52.2577 27.7061L49.7073 24.8838L78.0756 29.8582L80.9094 32.6843Z" fill="white"/>
<path d="M97.3299 30.0381H103.162L101.665 37.291H106.808C108.19 37.291 109.247 37.6739 109.14 38.9338C109.033 40.1937 106.842 48.852 106.842 48.852H101.431C101.431 48.852 102.963 42.3229 103.22 41.5225C103.277 41.3443 103.289 41.1547 103.257 40.9704C103.224 40.7861 103.147 40.6126 103.031 40.465C102.916 40.3174 102.767 40.2002 102.596 40.1236C102.425 40.0469 102.238 40.0131 102.052 40.0252C101.251 40.0252 100.903 40.2818 100.757 40.7911C100.612 41.3004 98.4978 48.8329 98.4978 48.8329H92.9567L97.3299 30.0381Z" fill="white"/>
<path d="M142.157 37.2984H133.422C132.483 37.3379 131.579 37.6677 130.835 38.2424C130.09 38.8172 129.543 39.6085 129.267 40.5074L127.9 45.6733C127.437 47.431 128.54 48.867 130.362 48.867H139.385C140.317 48.8309 141.213 48.5006 141.946 47.9234C142.678 47.3462 143.21 46.5518 143.463 45.6542L144.692 40.5074C144.809 40.1228 144.831 39.7156 144.756 39.3205C144.682 38.9255 144.513 38.5544 144.264 38.2388C144.015 37.9232 143.693 37.6725 143.326 37.5081C142.959 37.3437 142.558 37.2704 142.157 37.2945M137.156 45.4589H134.131L135.701 40.4806H138.726L137.156 45.4589Z" fill="white"/>
<path d="M0.958793 63.5761H1.50257C1.80509 64.993 2.29526 66.0231 2.96541 66.6665C3.26623 66.9704 3.62399 67.212 4.01822 67.3776C4.41246 67.5431 4.83546 67.6294 5.26306 67.6315C6.10808 67.6315 6.7093 67.4107 7.06671 66.969C7.40208 66.5811 7.59049 66.0878 7.599 65.5751C7.60865 65.3171 7.56385 65.06 7.46752 64.8205C7.37119 64.581 7.22549 64.3644 7.03991 64.185C6.58284 63.8169 6.08103 63.5081 5.54644 63.2659L4.34017 62.6571C3.38475 62.2282 2.5223 61.6168 1.80126 60.8572C1.29958 60.2382 1.03726 59.4594 1.06219 58.663C1.07105 57.7099 1.41852 56.791 2.04252 56.0705C2.69352 55.2663 3.693 54.8642 5.04095 54.8642C5.71708 54.8638 6.38906 54.9697 7.03225 55.1782C7.38866 55.312 7.75481 55.4182 8.12746 55.4961C8.20876 55.5053 8.29106 55.4932 8.36627 55.461C8.44147 55.4288 8.50699 55.3775 8.55635 55.3122C8.64704 55.1662 8.71181 55.0055 8.74783 54.8374H9.31075V58.9655H8.78612C8.55817 58.0475 8.10847 57.1993 7.47646 56.4955C7.19649 56.1665 6.84763 55.903 6.45456 55.7236C6.06149 55.5443 5.63381 55.4535 5.20179 55.4578C4.65545 55.4291 4.11994 55.6177 3.71214 55.9824C3.36712 56.3281 3.1705 56.7948 3.16407 57.2831C3.15763 57.7715 3.34189 58.2432 3.67768 58.5979C4.38039 59.1236 5.13792 59.5717 5.93703 59.9344L7.33477 60.6351C7.88661 60.9009 8.39112 61.2554 8.82825 61.6844C9.16722 62.0275 9.43402 62.435 9.61292 62.8829C9.79182 63.3308 9.87918 63.81 9.86985 64.2922C9.84893 65.3028 9.44995 66.2688 8.75166 66.9996C8.00875 67.8446 6.8178 68.2684 5.17881 68.271C4.79336 68.2713 4.40873 68.2354 4.02999 68.1638C3.63695 68.0929 3.25206 67.9826 2.88116 67.8344L2.49822 67.6966L2.25314 67.6353C2.18635 67.6213 2.1184 67.6137 2.05018 67.6123C1.97395 67.6035 1.89675 67.6148 1.82623 67.645C1.7557 67.6753 1.69429 67.7234 1.64809 67.7847C1.56133 67.9368 1.49685 68.1006 1.45662 68.271H0.912842L0.958793 63.5761Z" fill="white"/>
<path d="M12.5504 64.2002C13.7689 63.5369 15.0657 63.0288 16.4104 62.6876V61.309C16.4466 60.8647 16.32 60.4224 16.0543 60.0644C15.8836 59.9127 15.6828 59.7984 15.4651 59.7292C15.2475 59.6599 15.0176 59.6371 14.7906 59.6623C14.4994 59.6501 14.2101 59.7148 13.9519 59.85C13.8582 59.8916 13.7778 59.9583 13.7197 60.0428C13.6615 60.1273 13.628 60.2262 13.6226 60.3287C13.6219 60.392 13.635 60.4547 13.6609 60.5125C13.6896 60.5702 13.7271 60.6231 13.772 60.6695L13.883 60.7997C13.9707 60.9036 14.0406 61.0214 14.0898 61.1481C14.1738 61.3569 14.1924 61.5861 14.1431 61.8057C14.0939 62.0252 13.9791 62.2245 13.8141 62.3774C13.5809 62.5709 13.286 62.6742 12.9831 62.6684C12.6442 62.6773 12.3136 62.563 12.0526 62.3468C11.9218 62.2305 11.8193 62.0858 11.7529 61.9239C11.6866 61.762 11.6581 61.587 11.6696 61.4124C11.6686 61.0586 11.7635 60.7112 11.9442 60.4071C12.1249 60.103 12.3847 59.8535 12.6959 59.6853C13.4618 59.2399 14.3378 59.0196 15.2233 59.0496C16.1556 59.0197 17.0796 59.2335 17.9039 59.67C18.6213 60.0912 18.9787 60.8571 18.9761 61.9676V66.5629C18.9734 66.6876 19.011 66.8099 19.0834 66.9114C19.1084 66.9529 19.143 66.9878 19.1843 67.0131C19.2257 67.0384 19.2724 67.0535 19.3208 67.0569C19.3894 67.0571 19.4573 67.0427 19.5199 67.0148C19.6207 66.9512 19.7122 66.8738 19.7918 66.785L20.079 67.168C19.7516 67.5685 19.3289 67.8806 18.8498 68.0756C18.563 68.1877 18.2577 68.2448 17.9499 68.2441C17.7205 68.2642 17.4897 68.23 17.2761 68.1442C17.0625 68.0584 16.8722 67.9233 16.7206 67.7501C16.5473 67.5059 16.4357 67.2234 16.3951 66.9267C15.899 67.4331 15.2901 67.8149 14.6183 68.0411C14.2361 68.1725 13.8352 68.241 13.4311 68.2441C12.9057 68.2425 12.3956 68.0675 11.9798 67.7462C11.7498 67.5661 11.5677 67.3321 11.4495 67.065C11.3313 66.7979 11.2807 66.5058 11.302 66.2145C11.3032 65.7959 11.4187 65.3857 11.636 65.028C11.8533 64.6703 12.1642 64.3788 12.5351 64.1849M15.8398 66.6242C16.0333 66.4691 16.2104 66.2946 16.3683 66.1034V63.3309C15.8921 63.4413 15.4403 63.6386 15.0357 63.913C14.7394 64.0937 14.4945 64.3474 14.3242 64.6497C14.1539 64.9521 14.064 65.293 14.063 65.6401C14.0373 65.9777 14.1368 66.3131 14.3425 66.5821C14.4179 66.6863 14.516 66.7719 14.6295 66.8323C14.7431 66.8927 14.8689 66.9263 14.9974 66.9306C15.307 66.9314 15.6088 66.8335 15.859 66.651" fill="white"/>
<path d="M20.6228 67.547C20.9001 67.5313 21.1665 67.434 21.3887 67.2674C21.4861 67.1466 21.5581 67.0073 21.6002 66.8579C21.6424 66.7085 21.6538 66.5521 21.6338 66.3982V56.7442C21.6624 56.4618 21.5905 56.1785 21.4308 55.9438C21.2047 55.7549 20.9212 55.6483 20.6266 55.6413V55.1895H24.2914V60.52C24.6365 60.0904 25.0522 59.7227 25.5206 59.4325C25.9587 59.1741 26.4596 59.0416 26.9681 59.0495C27.6275 59.0251 28.2718 59.2508 28.7718 59.6814C29.2518 60.1077 29.4905 60.8289 29.4879 61.845V66.3982C29.4493 66.6948 29.5261 66.995 29.7023 67.2368C29.9146 67.4003 30.165 67.507 30.4299 67.547V68.0027H25.9725V67.547C26.2247 67.5168 26.4648 67.4218 26.6694 67.2713C26.8243 67.0364 26.8896 66.7537 26.8533 66.4747V61.8794C26.8693 61.55 26.8252 61.2204 26.7231 60.9068C26.6628 60.7251 26.5431 60.5689 26.3834 60.4633C26.2237 60.3578 26.0331 60.3089 25.8423 60.3247C25.4616 60.3475 25.1023 60.5082 24.8313 60.7766C24.4829 61.0791 24.3067 61.2859 24.3067 61.3969V66.4709C24.2704 66.7499 24.3356 67.0326 24.4905 67.2674C24.6951 67.418 24.9352 67.513 25.1875 67.5432V67.9989H20.6228V67.547Z" fill="white"/>
<path d="M32.4978 60.3556C32.8815 59.9255 33.3544 59.5841 33.8835 59.3553C34.4125 59.1265 34.9851 59.0157 35.5614 59.0306C36.1401 59.0158 36.715 59.1294 37.2447 59.3631C37.7743 59.5968 38.2457 59.9449 38.6249 60.3824C39.4251 61.2839 39.8534 62.4554 39.8235 63.6604C39.8478 64.8571 39.426 66.0201 38.6402 66.9231C38.261 67.3686 37.7863 67.723 37.2512 67.9596C36.7162 68.1963 36.1346 68.3093 35.5499 68.2902C34.9735 68.3036 34.401 68.1918 33.8721 67.9624C33.3432 67.7329 32.8704 67.3914 32.4863 66.9614C31.7028 66.0392 31.2726 64.8686 31.2726 63.6585C31.2726 62.4484 31.7028 61.2777 32.4863 60.3556M34.2555 66.4482C34.4725 67.2677 34.9027 67.6775 35.546 67.6775C35.8264 67.6892 36.1016 67.6003 36.3222 67.4269C36.5427 67.2534 36.6939 67.0068 36.7485 66.7316C36.9795 65.7277 37.0761 64.6975 37.0357 63.6681C37.0759 62.6378 36.9741 61.607 36.7332 60.6045C36.6799 60.333 36.5322 60.0891 36.3164 59.9159C36.1005 59.7428 35.8303 59.6517 35.5537 59.6587C34.9104 59.6587 34.4815 60.0684 34.267 60.8879C34.0922 61.8063 34.0203 62.7414 34.0526 63.6757C34.0203 64.6096 34.0883 65.5442 34.2555 66.4635" fill="white"/>
<path d="M41.9756 60.3556C42.3694 59.937 42.8452 59.604 43.3732 59.3772C43.9012 59.1504 44.4703 59.0346 45.045 59.0371C45.6196 59.0397 46.1877 59.1604 46.7137 59.3918C47.2397 59.6232 47.7125 59.9604 48.1027 60.3824C48.9028 61.2839 49.3312 62.4554 49.3013 63.6604C49.3255 64.8571 48.9038 66.0201 48.118 66.923C47.7377 67.3683 47.2622 67.7223 46.7266 67.9589C46.191 68.1956 45.6091 68.3087 45.0238 68.2901C44.4474 68.3041 43.8748 68.1925 43.3458 67.963C42.8167 67.7336 42.344 67.3918 41.9603 66.9613C41.1753 66.0399 40.7441 64.8689 40.7441 63.6585C40.7441 62.448 41.1753 61.277 41.9603 60.3556M43.7333 66.4482C43.9516 67.2677 44.3766 67.6774 45.02 67.6774C45.3007 67.6908 45.5768 67.6025 45.7976 67.4288C46.0185 67.255 46.1693 67.0075 46.2224 66.7316C46.4535 65.7276 46.5501 64.6974 46.5096 63.668C46.5507 62.638 46.4502 61.6072 46.2109 60.6045C46.157 60.3333 46.0091 60.0898 45.7934 59.9168C45.5777 59.7438 45.3079 59.6524 45.0315 59.6586C44.3881 59.6586 43.958 60.0684 43.741 60.8879C43.5679 61.8065 43.4972 62.7415 43.5304 63.6757C43.4981 64.6095 43.5661 65.5442 43.7333 66.4635" fill="white"/>
<path d="M54.8234 67.5202C55.5433 67.5202 56.0143 67.3862 56.2288 67.1372C56.4694 66.8135 56.585 66.4136 56.5543 66.0114V57.0046C56.5796 56.8164 56.5579 56.6248 56.4911 56.4471C56.4242 56.2693 56.3144 56.1109 56.1713 55.986C55.7636 55.7814 55.314 55.6739 54.8578 55.672V55.1895H59.6331L63.363 63.9665H63.5238L67.2307 55.1895H72.0098V55.672C71.5479 55.6662 71.0933 55.7881 70.6963 56.0243C70.4627 56.2119 70.344 56.6714 70.344 57.4029V65.7816C70.344 66.4786 70.4627 66.9304 70.6963 67.1525C71.0823 67.4144 71.5442 67.541 72.0098 67.5125V67.995H65.7257V67.5125C66.1664 67.524 66.603 67.4267 66.9971 67.2291C67.2805 67.0606 67.4221 66.6892 67.4221 66.1148V56.8476H67.2843L62.6354 68.0027H62.1261L57.4312 57.0774H57.3508V65.6514C57.3104 66.1393 57.433 66.6268 57.6993 67.0377C57.9367 67.3287 58.4651 67.4895 59.2578 67.5202V68.0027H54.8234V67.5202Z" fill="white"/>
<path d="M74.0394 60.2559C74.3959 59.8695 74.8297 59.5624 75.3126 59.3546C75.7956 59.1468 76.3168 59.0429 76.8425 59.0496C77.4634 59.0495 78.0725 59.219 78.604 59.5398C79.1486 59.8626 79.5897 60.3342 79.8754 60.8992C80.1244 61.4372 80.2811 62.0133 80.3388 62.6033C80.3747 62.8571 80.3952 63.1129 80.4 63.3692H75.5596C75.5919 64.0416 75.7208 64.7058 75.9426 65.3414C76.3255 66.383 76.965 66.9076 77.8994 66.9076C78.3538 66.9031 78.7955 66.7572 79.1631 66.4902C79.4915 66.2414 79.7931 65.959 80.063 65.6477L80.4958 65.9158C80.0235 66.7674 79.3163 67.4653 78.4585 67.9262C77.9169 68.1736 77.3268 68.2965 76.7314 68.2862C75.7486 68.2656 74.8105 67.8712 74.1083 67.1833C73.2965 66.4481 72.8893 65.275 72.8867 63.6641C72.8867 62.2089 73.2697 61.0779 74.0355 60.2712M78.0641 62.6646C78.0953 61.876 78.0075 61.0872 77.8037 60.3248C77.7433 60.1206 77.6153 59.943 77.4406 59.8212C77.2659 59.6995 77.055 59.6407 76.8425 59.6547C76.6111 59.6481 76.3843 59.7204 76.1993 59.8595C76.0142 59.9986 75.8819 60.1964 75.8239 60.4205C75.6118 61.1482 75.5073 61.9029 75.5137 62.6608L78.0641 62.6646Z" fill="white"/>
<path d="M81.1812 60.1064V59.578C81.3458 59.4248 81.5641 59.241 81.8015 59.0304C82.127 58.7278 82.4334 58.4177 82.7244 58.096C83.3012 57.4635 83.825 56.7847 84.2906 56.0664H84.7731V59.2716H86.5768V60.1064H84.7731V65.8084C84.7658 66.0364 84.8063 66.2634 84.8919 66.4748C84.9375 66.5997 85.0212 66.7072 85.1311 66.782C85.241 66.8569 85.3716 66.8954 85.5046 66.8922C85.6208 66.8944 85.7361 66.872 85.843 66.8265C85.95 66.7809 86.046 66.7133 86.1249 66.6279C86.3217 66.408 86.489 66.1634 86.6228 65.9003L87.0785 66.1225C86.8885 66.588 86.619 67.0169 86.2819 67.39C85.8851 67.8078 85.3679 68.0913 84.8022 68.2012C84.2366 68.311 83.6508 68.2416 83.1265 68.0027C82.8101 67.8398 82.5493 67.5863 82.3774 67.2747C82.2055 66.963 82.1304 66.6072 82.1615 66.2527V60.1064H81.1812Z" fill="white"/>
<path d="M88.9051 64.2002C90.1236 63.5369 91.4204 63.0288 92.7651 62.6876V61.309C92.8013 60.8647 92.6747 60.4224 92.409 60.0644C92.2382 59.9127 92.0375 59.7984 91.8198 59.7292C91.6021 59.6599 91.3723 59.6371 91.1453 59.6623C90.8541 59.6501 90.5648 59.7148 90.3066 59.85C90.2134 59.8918 90.1335 59.9586 90.076 60.0432C90.0186 60.1277 89.9857 60.2265 89.9811 60.3287C89.9792 60.3917 89.991 60.4544 90.0156 60.5125C90.0443 60.5702 90.0818 60.6231 90.1267 60.6695L90.2377 60.7997C90.3252 60.9045 90.3962 61.022 90.4483 61.1481C90.4991 61.2761 90.5251 61.4126 90.5249 61.5502C90.5335 61.7063 90.5058 61.8621 90.444 62.0057C90.3822 62.1492 90.288 62.2764 90.1688 62.3774C89.9368 62.5703 89.6433 62.6736 89.3416 62.6684C89.0015 62.6778 88.6695 62.5636 88.4073 62.3468C88.2765 62.2305 88.174 62.0858 88.1076 61.9239C88.0412 61.762 88.0128 61.587 88.0243 61.4124C88.0232 61.0581 88.1185 60.7103 88.3 60.4061C88.4815 60.1018 88.7422 59.8527 89.0544 59.6853C89.8203 59.2399 90.6963 59.0196 91.5818 59.0496C92.5141 59.0197 93.4381 59.2335 94.2624 59.67C94.9798 60.0912 95.3385 60.8571 95.3385 61.9676V66.5629C95.334 66.6879 95.3718 66.8106 95.4457 66.9114C95.4696 66.9531 95.5035 66.9881 95.5442 67.0135C95.585 67.0389 95.6314 67.0538 95.6793 67.0569C95.748 67.0578 95.816 67.0434 95.8784 67.0148C95.9799 66.9505 96.0726 66.8733 96.1542 66.785L96.4414 67.168C96.1125 67.5687 95.6886 67.8807 95.2083 68.0756C94.9216 68.188 94.6163 68.2452 94.3084 68.2441C94.0791 68.2636 93.8485 68.2291 93.635 68.1433C93.4215 68.0575 93.2311 67.9228 93.0791 67.7501C92.9059 67.5059 92.7942 67.2234 92.7536 66.9267C92.2575 67.4331 91.6486 67.8149 90.9768 68.0411C90.5959 68.1721 90.1963 68.2407 89.7935 68.2441C89.2668 68.243 88.7553 68.068 88.3383 67.7462C88.1084 67.5661 87.9263 67.3321 87.8081 67.065C87.6899 66.7979 87.6392 66.5058 87.6605 66.2145C87.6617 65.7959 87.7772 65.3857 87.9945 65.028C88.2118 64.6703 88.5227 64.3788 88.8936 64.1849M92.1984 66.6242C92.3928 66.4701 92.5699 66.2955 92.7268 66.1034V63.3309C92.2506 63.4413 91.7988 63.6386 91.3942 63.913C91.0987 64.0945 90.8543 64.3483 90.6841 64.6505C90.514 64.9527 90.4236 65.2933 90.4215 65.6401C90.3951 65.9784 90.4962 66.3145 90.7049 66.5821C90.7798 66.6792 90.8753 66.7584 90.9846 66.8141C91.0939 66.8697 91.2142 66.9003 91.3368 66.9038C91.6464 66.9046 91.9482 66.8067 92.1984 66.6242Z" fill="white"/>
<path d="M96.9738 67.547C97.2333 67.5036 97.4773 67.3942 97.6822 67.2291C97.8535 66.988 97.9286 66.6917 97.8928 66.3982V56.7442C97.9279 56.4637 97.8584 56.1801 97.6975 55.9477C97.4851 55.7876 97.2365 55.6823 96.9738 55.6413V55.1895H100.566V66.3982C100.529 66.6894 100.602 66.9839 100.769 67.2253C100.981 67.3892 101.229 67.4995 101.492 67.547V68.0027H96.9738V67.547Z" fill="white"/>
<path d="M106.984 67.5204C107.378 67.5311 107.771 67.4553 108.133 67.2983C108.317 67.1823 108.464 67.0163 108.558 66.8197C108.652 66.623 108.687 66.4039 108.661 66.1877V56.9971C108.688 56.7817 108.653 56.5631 108.561 56.3665C108.469 56.17 108.323 56.0036 108.14 55.8866C107.776 55.735 107.386 55.6569 106.991 55.6568V55.1743H117.741V59.0037H117.277C117.04 57.8243 116.644 56.9997 116.09 56.5299C115.535 56.0551 114.509 55.8215 113.027 55.8215C112.662 55.7797 112.294 55.8449 111.966 56.0091C111.879 56.1039 111.814 56.2163 111.775 56.3386C111.736 56.4609 111.724 56.5902 111.74 56.7176V61.1061C112.761 61.124 113.453 60.9082 113.816 60.4589C114.255 59.8151 114.536 59.0763 114.635 58.303H115.118V64.7096H114.635C114.59 63.9055 114.325 63.1292 113.869 62.4655C113.486 61.9983 112.774 61.7648 111.755 61.7648V66.1801C111.755 66.766 111.924 67.1374 112.268 67.2944C112.771 67.4766 113.306 67.5509 113.838 67.5127V67.9952H106.984V67.5204Z" fill="white"/>
<path d="M122.137 59.2715V65.7049C122.118 65.9929 122.167 66.2813 122.278 66.5474C122.373 66.7117 122.514 66.8445 122.683 66.929C122.853 67.0135 123.044 67.0459 123.232 67.0222C123.55 67.0164 123.859 66.9165 124.12 66.735C124.345 66.5783 124.556 66.4014 124.748 66.2066V60.8262C124.782 60.5276 124.696 60.2279 124.511 59.9914C124.237 59.7947 123.902 59.6999 123.565 59.7234V59.2715H127.341V66.1032C127.311 66.3997 127.398 66.6963 127.582 66.9303C127.833 67.1177 128.139 67.216 128.451 67.2099V67.6464C127.28 67.7575 126.537 67.8417 126.234 67.8915C125.738 67.9909 125.249 68.1188 124.768 68.2744V67.0261C124.423 67.3363 124.048 67.6121 123.649 67.8494C123.153 68.1265 122.594 68.2728 122.026 68.2744C121.405 68.2747 120.801 68.0716 120.306 67.6962C119.782 67.3133 119.517 66.6163 119.517 65.6207V60.8339C119.554 60.5545 119.484 60.2717 119.322 60.0412C119.098 59.8726 118.834 59.7656 118.556 59.731V59.2715H122.137Z" fill="white"/>
<path d="M129.145 67.547C129.419 67.5368 129.685 67.4477 129.911 67.2905C130.084 67.0747 130.166 66.8001 130.14 66.5246L130.159 65.9693V60.8264C130.191 60.5403 130.119 60.2523 129.956 60.0146C129.725 59.8343 129.442 59.7323 129.148 59.7236V59.2717H132.74V60.7613C133.086 60.2962 133.488 59.8767 133.939 59.5129C134.329 59.2054 134.813 59.0418 135.31 59.0496C135.695 59.0492 136.068 59.1848 136.363 59.4325C136.637 59.6882 136.804 60.0381 136.83 60.4118C136.856 60.7855 136.74 61.1553 136.505 61.4468C136.396 61.565 136.263 61.6584 136.115 61.7206C135.967 61.7827 135.807 61.8121 135.647 61.8068C135.44 61.8027 135.237 61.7492 135.055 61.6505C134.873 61.5519 134.718 61.4112 134.602 61.24C134.311 60.8571 134.104 60.6771 133.985 60.6771C133.831 60.6938 133.682 60.7443 133.55 60.825C133.417 60.9058 133.305 61.0148 133.219 61.1443C132.939 61.5328 132.804 62.0068 132.836 62.4846V66.0727C132.836 66.7008 132.924 67.0913 133.108 67.2484C133.435 67.4502 133.812 67.5563 134.196 67.5547V68.0104H129.145V67.547Z" fill="white"/>
<path d="M137.539 67.5469C137.816 67.5303 138.082 67.4332 138.305 67.2673C138.401 67.1459 138.472 67.0065 138.514 66.8573C138.556 66.7081 138.568 66.552 138.55 66.3981V60.8263C138.577 60.5433 138.507 60.2595 138.351 60.0221C138.122 59.8334 137.835 59.7281 137.539 59.7234V59.2715H141.131V60.631C141.428 60.1712 141.82 59.7796 142.28 59.4821C142.736 59.1883 143.268 59.0328 143.811 59.0341C144.507 58.9865 145.194 59.2117 145.726 59.6621C146.17 60.0834 146.396 60.8109 146.396 61.8755V66.4708C146.376 66.6157 146.385 66.7631 146.422 66.9045C146.46 67.0459 146.525 67.1784 146.614 67.2942C146.829 67.4437 147.081 67.53 147.342 67.5431V67.9988H142.877V67.5431C143.128 67.5129 143.367 67.4179 143.57 67.2673C143.728 67.0339 143.795 66.7504 143.758 66.4708V61.8755C143.772 61.5462 143.728 61.2169 143.627 60.9029C143.567 60.7215 143.447 60.5657 143.287 60.4603C143.128 60.3548 142.937 60.3057 142.747 60.3208C142.412 60.3234 142.09 60.4503 141.843 60.6769C141.596 60.8809 141.383 61.1225 141.211 61.393V66.467C141.173 66.7461 141.238 67.0295 141.395 67.2635C141.598 67.4141 141.837 67.5091 142.088 67.5392V67.9949H137.539V67.5469Z" fill="white"/>
<path d="M148.07 67.5469C148.316 67.5258 148.553 67.44 148.755 67.298C148.86 67.1756 148.939 67.0329 148.988 66.8788C149.036 66.7247 149.052 66.5624 149.035 66.4019V60.8263C149.065 60.5485 148.996 60.2691 148.839 60.0374C148.622 59.8578 148.355 59.7483 148.073 59.7234V59.2715H151.708V66.4746C151.67 66.7542 151.737 67.0377 151.895 67.2712C152.098 67.4225 152.337 67.5176 152.588 67.5469V68.0026H148.07V67.5469ZM149.333 55.331C149.574 55.0881 149.892 54.9364 150.233 54.9017C150.573 54.867 150.915 54.9514 151.2 55.1407C151.485 55.33 151.696 55.6123 151.796 55.9395C151.896 56.2667 151.88 56.6186 151.749 56.935C151.619 57.2514 151.383 57.5129 151.082 57.6747C150.78 57.8365 150.432 57.8886 150.096 57.8223C149.76 57.7559 149.458 57.5752 149.241 57.3108C149.023 57.0464 148.905 56.7148 148.904 56.3726C148.901 56.179 148.938 55.9866 149.011 55.8075C149.085 55.6284 149.195 55.4662 149.333 55.331Z" fill="white"/>
<path d="M153.339 60.1064V59.578C153.504 59.4248 153.722 59.241 153.959 59.0304C154.285 58.7278 154.591 58.4177 154.882 58.096C155.459 57.4635 155.983 56.7847 156.448 56.0664H156.931V59.2716H158.735V60.1064H156.931V65.8084C156.924 66.0364 156.964 66.2634 157.05 66.4748C157.095 66.6 157.178 66.7078 157.288 66.7828C157.398 66.8577 157.529 66.896 157.662 66.8922C157.778 66.8944 157.894 66.872 158.001 66.8265C158.108 66.7809 158.204 66.7133 158.283 66.6279C158.479 66.408 158.647 66.1634 158.78 65.9003L159.236 66.1225C159.046 66.588 158.777 67.0169 158.44 67.39C158.043 67.8078 157.526 68.0913 156.96 68.2012C156.394 68.311 155.809 68.2416 155.284 68.0027C154.968 67.8398 154.707 67.5863 154.535 67.2747C154.363 66.963 154.288 66.6072 154.319 66.2527V60.1064H153.339Z" fill="white"/>
<path d="M163.226 59.2715V65.7049C163.208 65.9925 163.256 66.2805 163.364 66.5474C163.459 66.711 163.6 66.8432 163.77 66.9276C163.939 67.012 164.13 67.0449 164.318 67.0222C164.636 67.0171 164.945 66.9171 165.206 66.735C165.433 66.5785 165.644 66.4016 165.838 66.2066V60.8262C165.869 60.5278 165.784 60.2289 165.601 59.9914C165.325 59.7951 164.989 59.7003 164.651 59.7234V59.2715H168.427V66.1032C168.395 66.3921 168.475 66.6822 168.649 66.915C168.901 67.1024 169.208 67.2007 169.522 67.1945V67.6311C168.346 67.7421 167.607 67.8264 167.305 67.8762C166.809 67.9751 166.319 68.103 165.838 68.2591V67.0107C165.492 67.3212 165.116 67.597 164.716 67.8341C164.221 68.1112 163.664 68.2575 163.096 68.2591C162.479 68.2564 161.879 68.052 161.388 67.6771C160.86 67.2941 160.596 66.5972 160.596 65.6015V60.8147C160.632 60.5354 160.562 60.2525 160.4 60.022C160.177 59.8526 159.913 59.7456 159.634 59.7119V59.2715H163.226Z" fill="white"/>
<path d="M170.234 67.5471C170.509 67.5386 170.776 67.4493 171 67.2905C171.173 67.0746 171.257 66.8004 171.234 66.5246V65.9693V60.8264C171.265 60.5403 171.193 60.2523 171.031 60.0146C170.801 59.8341 170.519 59.7321 170.227 59.7236V59.2717H173.819V60.7613C174.161 60.2955 174.563 59.8759 175.013 59.513C175.405 59.2052 175.89 59.0416 176.388 59.0496C176.773 59.0505 177.146 59.186 177.441 59.4325C177.714 59.6892 177.879 60.0392 177.905 60.4127C177.93 60.7861 177.814 61.1554 177.579 61.4468C177.471 61.5651 177.338 61.6585 177.19 61.7206C177.042 61.7827 176.882 61.8121 176.721 61.8068C176.515 61.8031 176.312 61.7496 176.131 61.651C175.95 61.5523 175.795 61.4113 175.68 61.24C175.386 60.8647 175.179 60.6771 175.059 60.6771C174.905 60.6938 174.757 60.7443 174.624 60.8251C174.492 60.9058 174.379 61.0148 174.293 61.1443C174.014 61.5328 173.878 62.0069 173.911 62.4846V66.0727C173.911 66.7008 174.002 67.0914 174.182 67.2484C174.509 67.4495 174.886 67.5556 175.27 67.5547V68.0104H170.234V67.5471Z" fill="white"/>
<path d="M179.551 60.2559C179.909 59.8696 180.343 59.5626 180.827 59.3548C181.31 59.147 181.832 59.0431 182.358 59.0496C182.979 59.0495 183.588 59.219 184.12 59.5398C184.664 59.8636 185.104 60.335 185.391 60.8992C185.639 61.4375 185.794 62.0135 185.851 62.6033C185.887 62.8571 185.909 63.1128 185.916 63.3692H181.075C181.104 64.042 181.233 64.7068 181.458 65.3413C181.841 66.3829 182.481 66.9076 183.415 66.9076C183.868 66.9036 184.309 66.7576 184.675 66.4902C185.004 66.2424 185.306 65.96 185.575 65.6477L186.011 65.9157C185.538 66.7666 184.831 67.4642 183.974 67.9262C183.432 68.1732 182.842 68.2961 182.247 68.2862C181.264 68.2656 180.326 67.8712 179.624 67.1833C178.807 66.448 178.4 65.275 178.402 63.664C178.402 62.2089 178.785 61.0779 179.551 60.2712M183.584 62.6646C183.611 61.8761 183.523 61.088 183.323 60.3248C183.262 60.1172 183.131 59.937 182.953 59.8149C182.774 59.6928 182.559 59.6361 182.343 59.6546C182.111 59.6474 181.884 59.7194 181.699 59.8586C181.514 59.9979 181.382 60.1961 181.324 60.4205C181.108 61.1473 181.004 61.9026 181.014 62.6607L183.584 62.6646Z" fill="white"/>
<path d="M17.4903 81.3175C17.7087 81.9334 18.0313 82.5072 18.4438 83.014C18.725 83.3663 19.0831 83.6495 19.4906 83.842C19.8982 84.0345 20.3444 84.1311 20.7951 84.1245C21.2769 84.1321 21.7446 83.9617 22.1086 83.6458C22.2955 83.4765 22.4424 83.2677 22.5384 83.0345C22.6345 82.8014 22.6773 82.5497 22.6639 82.2979C22.6653 82.0467 22.6166 81.7977 22.5206 81.5656C22.4246 81.3335 22.2832 81.1229 22.1048 80.9461C21.6295 80.534 21.1167 80.1673 20.573 79.8509L19.2097 79.0161C18.851 78.797 18.5216 78.5332 18.2294 78.231C17.8009 77.7834 17.5597 77.1888 17.5554 76.5691C17.5442 76.1976 17.6094 75.8278 17.7471 75.4826C17.8848 75.1374 18.092 74.8242 18.3558 74.5624C18.636 74.2923 18.9682 74.0821 19.3323 73.9445C19.6964 73.8069 20.0846 73.7448 20.4734 73.7621C20.9231 73.7783 21.3669 73.8689 21.7869 74.0302C22.0699 74.144 22.3619 74.2337 22.66 74.2982C22.7337 74.3069 22.8084 74.2991 22.8786 74.2752C22.9488 74.2514 23.0128 74.2121 23.0659 74.1604C23.1508 74.0464 23.2108 73.916 23.2421 73.7774H23.5676L23.9199 77.1665H23.537C23.2766 76.144 22.863 75.4317 22.2886 75.0296C21.801 74.6541 21.2073 74.4423 20.5921 74.4246C20.1761 74.4131 19.7693 74.5487 19.4433 74.8075C19.2831 74.9341 19.1554 75.097 19.0708 75.2828C18.9862 75.4687 18.9472 75.672 18.957 75.8759C18.9506 76.261 19.087 76.6348 19.3399 76.9252C19.6736 77.2907 20.061 77.6032 20.4887 77.8519L21.8865 78.7135C22.5808 79.1017 23.2059 79.6025 23.7361 80.1955C24.0936 80.6587 24.2814 81.2304 24.2684 81.8154C24.2748 82.2115 24.1932 82.6042 24.0297 82.965C23.8661 83.3259 23.6246 83.646 23.3225 83.9024C22.6544 84.4793 21.7919 84.7804 20.91 84.7449C20.3875 84.7361 19.8701 84.6417 19.3782 84.4653C19.0756 84.3391 18.7631 84.2379 18.4438 84.1628C18.3702 84.1511 18.2947 84.1612 18.2266 84.1918C18.1586 84.2224 18.101 84.2722 18.0609 84.3351C17.9965 84.4543 17.9537 84.584 17.9345 84.7181H17.586L17.1112 81.329L17.4903 81.3175Z" fill="white"/>
<path d="M25.4555 84.3006C25.7624 84.293 26.0578 84.1824 26.2941 83.9866C26.464 83.6522 26.5319 83.2754 26.4894 82.9028V75.4393C26.5024 75.2204 26.4644 75.0015 26.3784 74.7998C26.3018 74.6619 26.1218 74.593 25.8308 74.593C25.7747 74.5891 25.7184 74.5891 25.6623 74.593L25.4823 74.6198V74.3403L26.3248 74.0952C26.6579 73.9994 26.8915 73.9343 27.0217 73.8884L27.7646 73.6548V73.7122V78.4952C28.0216 78.1867 28.3147 77.9102 28.6377 77.6718C29.0695 77.3684 29.5843 77.2053 30.1121 77.2047C30.4739 77.1747 30.8358 77.2611 31.1451 77.4512C31.4544 77.6413 31.6948 77.9252 31.8315 78.2616C32.0138 78.7296 32.0985 79.2301 32.0804 79.7321V82.9028C32.0412 83.2712 32.1076 83.643 32.2719 83.9751C32.4775 84.1755 32.7507 84.2916 33.0377 84.3006V84.5188H29.7023V84.3006C30.0189 84.2918 30.324 84.1802 30.5716 83.9827C30.7422 83.65 30.8102 83.2742 30.7669 82.9028V79.755C30.7846 79.3332 30.6978 78.9136 30.5142 78.5335C30.416 78.3733 30.2741 78.2445 30.1051 78.1624C29.9362 78.0803 29.7472 78.0483 29.5606 78.0701C29.1323 78.0775 28.7192 78.2301 28.3888 78.5028C28.0059 78.7939 27.8221 78.9815 27.8221 79.0696V82.899C27.8221 83.4772 27.8872 83.841 28.0212 83.9866C28.27 84.1781 28.5728 84.2867 28.8867 84.2967V84.515H25.4402L25.4555 84.3006Z" fill="white"/>
<path d="M38.8432 77.986C39.1253 78.2648 39.3444 78.6008 39.4858 78.9714C39.6271 79.3419 39.6874 79.7385 39.6627 80.1343H34.7304C34.7814 81.3317 35.0533 82.206 35.546 82.7575C35.7597 83.0142 36.0273 83.2207 36.3297 83.3623C36.6322 83.5039 36.9621 83.5772 37.2961 83.577C37.7889 83.5927 38.2729 83.443 38.6709 83.1519C39.087 82.8156 39.4376 82.4054 39.7048 81.9418L39.9767 82.0337C39.7389 82.7347 39.3279 83.3644 38.7819 83.8642C38.4989 84.1397 38.1638 84.356 37.7963 84.5007C37.4288 84.6453 37.0361 84.7153 36.6413 84.7067C36.2025 84.7271 35.7657 84.6363 35.3714 84.4428C34.9771 84.2494 34.6381 83.9594 34.3857 83.6C33.8515 82.8624 33.5707 81.9716 33.5854 81.061C33.5697 80.0864 33.8978 79.1373 34.5121 78.3805C34.796 78.0142 35.1618 77.7195 35.58 77.52C35.9983 77.3205 36.4575 77.2218 36.9208 77.2316C37.6342 77.2292 38.3206 77.5038 38.8355 77.9975M35.1133 78.5911C34.929 78.9181 34.8069 79.2764 34.7534 79.648H38.0313C38.0067 79.2503 37.908 78.8607 37.7403 78.4992C37.6144 78.2762 37.4277 78.0936 37.2018 77.9729C36.976 77.8522 36.7205 77.7983 36.4651 77.8175C36.1907 77.8062 35.9187 77.872 35.6798 78.0074C35.4409 78.1427 35.2447 78.3423 35.1133 78.5834" fill="white"/>
<path d="M45.9046 77.9861C46.1872 78.2646 46.4069 78.6005 46.5489 78.9711C46.6909 79.3416 46.752 79.7383 46.7279 80.1344H41.8033C41.8518 81.3317 42.1237 82.2061 42.619 82.7575C42.8319 83.0141 43.0987 83.2206 43.4006 83.3623C43.7024 83.5039 44.0318 83.5772 44.3652 83.577C44.8581 83.5933 45.3422 83.4436 45.7399 83.1519C46.1584 82.8179 46.5093 82.4073 46.7739 81.9419L47.0458 82.0338C46.8095 82.7346 46.3998 83.3643 45.8548 83.8642C45.5717 84.1395 45.2366 84.3558 44.8691 84.5004C44.5016 84.645 44.109 84.7152 43.7142 84.7067C43.2749 84.727 42.8376 84.6363 42.4427 84.4428C42.0478 84.2494 41.708 83.9595 41.4548 83.6C40.9206 82.8625 40.6398 81.9717 40.6545 81.0611C40.6388 80.0864 40.9669 79.1373 41.5812 78.3805C41.8649 78.014 42.2306 77.7192 42.6489 77.5197C43.0673 77.3201 43.5265 77.2215 43.9899 77.2317C44.7034 77.2285 45.3901 77.5032 45.9046 77.9976M42.1862 78.5796C42.0049 78.9076 41.8842 79.2657 41.8301 79.6365H45.1081C45.0825 79.2385 44.9825 78.8489 44.8132 78.4877C44.6881 78.2641 44.5014 78.081 44.2754 77.9602C44.0494 77.8394 43.7935 77.7859 43.538 77.8061C43.2638 77.7957 42.9921 77.8618 42.7534 77.9971C42.5147 78.1324 42.3183 78.3314 42.1862 78.572" fill="white"/>
<path d="M51.4573 77.3542V77.9133H49.8681V82.3899C49.8563 82.6909 49.8912 82.9918 49.9715 83.2821C50.0126 83.4415 50.1075 83.5818 50.24 83.6795C50.3725 83.7771 50.5346 83.8261 50.6991 83.8183C50.8704 83.8231 51.0394 83.7779 51.1854 83.6881C51.3592 83.5677 51.5174 83.4262 51.6564 83.2668L51.8594 83.4391L51.687 83.6727C51.4658 83.9909 51.1734 84.2532 50.8331 84.4386C50.5647 84.5802 50.2671 84.6575 49.9638 84.6646C49.6955 84.6846 49.4281 84.6156 49.203 84.4681C48.978 84.3206 48.8079 84.1029 48.7192 83.8489C48.5842 83.455 48.5232 83.0396 48.5393 82.6235V77.9133H47.693C47.671 77.9019 47.6515 77.8863 47.6355 77.8673C47.6282 77.8583 47.6227 77.8479 47.6194 77.8367C47.6161 77.8255 47.6151 77.8138 47.6164 77.8023C47.6138 77.7599 47.626 77.7179 47.6508 77.6835C47.7192 77.6111 47.7935 77.5445 47.8729 77.4844C48.1459 77.2639 48.4019 77.0232 48.6388 76.7645C48.7958 76.5807 49.1673 76.0982 49.7532 75.3093C49.7921 75.2992 49.833 75.2992 49.8719 75.3093C49.8719 75.3093 49.891 75.3591 49.891 75.4242V77.3389L51.4573 77.3542Z" fill="white"/>
<path d="M55.9722 84.2243C56.6347 84.1554 57.0559 84.006 57.2435 83.7763C57.4312 83.5465 57.5231 83.0104 57.5231 82.1717V75.7115C57.5231 75.1371 57.4312 74.7618 57.2512 74.5895C57.0712 74.4172 56.6576 74.3138 56.0143 74.2832V73.9883H59.1506L62.8077 81.9152L66.3729 73.9883H69.536V74.2832C69.1285 74.2653 68.7261 74.378 68.3871 74.6048C68.173 74.9316 68.0821 75.3239 68.1306 75.7115V82.7845C68.1306 83.3665 68.2148 83.738 68.3871 83.9026C68.7304 84.1198 69.1298 84.2316 69.536 84.2243V84.5192H65.0938V84.2243C65.7372 84.1707 66.1354 84.0558 66.2963 83.8758C66.4571 83.6959 66.5337 83.2746 66.5337 82.6006V75.455L62.4554 84.5192H62.2371L58.2315 75.8264V82.1717C58.2315 83.0449 58.3579 83.6116 58.6145 83.872C58.9391 84.1019 59.3272 84.2251 59.725 84.2243V84.5192H55.9722V84.2243Z" fill="white"/>
<path d="M75.5251 77.9861C75.8077 78.2647 76.0274 78.6005 76.1694 78.9711C76.3114 79.3417 76.3725 79.7383 76.3484 80.1344H71.4123C71.4659 81.3317 71.7378 82.2061 72.228 82.7576C72.4427 83.013 72.7104 83.2187 73.0127 83.3602C73.3149 83.5018 73.6443 83.5757 73.978 83.5771C74.4709 83.5933 74.9551 83.4436 75.3528 83.152C75.77 82.8167 76.1207 82.4063 76.3867 81.9419L76.6586 82.0338C76.4223 82.7356 76.0111 83.3655 75.4638 83.8643C75.1814 84.1394 74.847 84.3557 74.4801 84.5003C74.1133 84.6449 73.7213 84.7151 73.327 84.7067C72.8878 84.7271 72.4505 84.6363 72.0555 84.4429C71.6606 84.2494 71.3209 83.9596 71.0677 83.6C70.5348 82.862 70.2554 81.9713 70.2711 81.0611C70.254 80.0869 70.5808 79.1378 71.194 78.3805C71.4784 78.0138 71.8447 77.7188 72.2637 77.5192C72.6827 77.3197 73.1426 77.2212 73.6066 77.2317C74.3199 77.2293 75.0064 77.5039 75.5213 77.9976M71.7991 78.5912C71.6147 78.9182 71.4927 79.2765 71.4391 79.6481H74.7363C74.7097 79.2498 74.6084 78.86 74.4376 78.4992C74.313 78.2759 74.1271 78.093 73.9017 77.9722C73.6764 77.8513 73.4211 77.7977 73.1662 77.8176C72.892 77.8072 72.6203 77.8734 72.3816 78.0086C72.1428 78.1439 71.9464 78.3429 71.8144 78.5835" fill="white"/>
<path d="M81.0739 77.3541V77.9132H79.4886V82.3898C79.4778 82.6905 79.5113 82.9911 79.5881 83.282C79.6301 83.4417 79.7257 83.5821 79.8588 83.6797C79.992 83.7773 80.1546 83.8262 80.3195 83.8181C80.4909 83.823 80.6599 83.7777 80.8059 83.6879C80.979 83.5666 81.1371 83.4252 81.2769 83.2667L81.476 83.439L81.3075 83.6726C81.0859 83.9919 80.792 84.2543 80.4498 84.4385C80.1816 84.5806 79.8839 84.658 79.5805 84.6644C79.3124 84.6832 79.0455 84.6136 78.8208 84.4663C78.596 84.319 78.4257 84.1021 78.3359 83.8488C78.2025 83.4546 78.1427 83.0392 78.1598 82.6234V77.9132H77.3135C77.2904 77.9017 77.2696 77.8862 77.2522 77.8672C77.2457 77.846 77.2457 77.8233 77.2522 77.8021C77.2496 77.7598 77.2618 77.7178 77.2867 77.6834C77.3571 77.6131 77.4312 77.5466 77.5088 77.4843C77.7834 77.2658 78.0396 77.025 78.2746 76.7644C78.4316 76.5805 78.8069 76.098 79.389 75.3092C79.4292 75.2993 79.4713 75.2993 79.5115 75.3092C79.5288 75.3448 79.5354 75.3847 79.5307 75.4241V77.3388L81.0739 77.3541Z" fill="white"/>
<path d="M83.1609 81.0995C84.0703 80.589 85.0255 80.1647 86.0139 79.832V79.1848C86.0383 78.809 85.9848 78.4322 85.8569 78.0781C85.7444 77.8945 85.5811 77.7475 85.3866 77.655C85.1922 77.5625 84.975 77.5286 84.7616 77.5573C84.493 77.5566 84.2288 77.6266 83.9957 77.7603C83.8892 77.8139 83.7996 77.8959 83.7367 77.9973C83.6739 78.0986 83.6403 78.2154 83.6396 78.3347C83.6437 78.4402 83.6565 78.5452 83.6779 78.6487C83.6974 78.7434 83.7101 78.8394 83.7162 78.9359C83.7281 79.0533 83.7076 79.1718 83.657 79.2785C83.6063 79.3851 83.5275 79.4759 83.429 79.5409C83.3128 79.6083 83.1804 79.6427 83.0461 79.6405C82.945 79.6465 82.8439 79.6289 82.7508 79.589C82.6578 79.5491 82.5753 79.4881 82.5099 79.4107C82.3908 79.2678 82.3257 79.0875 82.3261 78.9014C82.3502 78.6734 82.4223 78.4531 82.5379 78.2551C82.6534 78.057 82.8096 77.8858 82.9963 77.7526C83.559 77.3203 84.2606 77.1092 84.9684 77.159C85.9717 77.159 86.6521 77.4858 87.0095 78.1394C87.2311 78.6277 87.331 79.1625 87.3005 79.6979V82.8151C87.2893 83.0251 87.31 83.2355 87.3618 83.4393C87.385 83.5313 87.44 83.6122 87.5171 83.6675C87.5942 83.7229 87.6884 83.7492 87.783 83.7418C87.8839 83.7435 87.9841 83.7253 88.0779 83.6882C88.2176 83.6091 88.352 83.5208 88.48 83.424V83.826C88.3266 84.0173 88.146 84.1851 87.9439 84.3239C87.6855 84.509 87.3771 84.6118 87.0593 84.6187C86.9132 84.6311 86.7665 84.6063 86.6326 84.5468C86.4986 84.4872 86.382 84.3947 86.2934 84.2779C86.1306 84.0362 86.0391 83.7535 86.0292 83.4623C85.7167 83.7468 85.3797 84.0031 85.022 84.2281C84.62 84.4862 84.1555 84.6305 83.6779 84.6455C83.2478 84.6465 82.8347 84.4772 82.5291 84.1745C82.3687 84.0215 82.2425 83.8363 82.1587 83.631C82.0749 83.4258 82.0354 83.2052 82.0427 82.9836C82.0496 82.5995 82.1563 82.2238 82.3524 81.8935C82.5484 81.5631 82.8271 81.2895 83.1609 81.0995ZM86.0139 80.2226C85.4977 80.382 85.0017 80.6004 84.5357 80.8736C83.7877 81.3331 83.415 81.8565 83.4175 82.4436C83.4018 82.6421 83.436 82.8414 83.5169 83.0233C83.5979 83.2052 83.723 83.364 83.8809 83.4852C84.078 83.6279 84.3153 83.7044 84.5587 83.7035C84.9071 83.7016 85.2481 83.6021 85.5428 83.4163C85.6802 83.3484 85.7966 83.2446 85.8795 83.1157C85.9625 82.9869 86.0089 82.838 86.0139 82.6849V80.2226Z" fill="white"/>
<path d="M88.8361 84.3007C89.1838 84.2978 89.5235 84.1969 89.8165 84.0097C89.9168 83.8911 89.9915 83.7529 90.0356 83.6039C90.0798 83.4549 90.0925 83.2984 90.073 83.1443V75.5505C90.0881 75.3112 90.0595 75.0712 89.9888 74.8421C89.9287 74.7304 89.8361 74.6394 89.7233 74.5813C89.6106 74.5232 89.4828 74.5007 89.3569 74.5166C89.2773 74.5173 89.1978 74.525 89.1195 74.5396L88.7979 74.6085V74.3519C89.4986 74.1643 90.3296 73.9192 91.3253 73.6052C91.3404 73.604 91.3553 73.6084 91.3674 73.6176C91.3794 73.6268 91.3876 73.6401 91.3904 73.655C91.3967 73.7212 91.3967 73.7879 91.3904 73.8541V83.1749C91.3682 83.3287 91.3775 83.4853 91.4177 83.6354C91.4578 83.7854 91.528 83.9258 91.624 84.048C91.9152 84.2219 92.2499 84.3095 92.589 84.3007V84.519H88.8247L88.8361 84.3007Z" fill="white"/>
<path d="M96.9469 73.9883H105.946L106.034 76.6918H105.651C105.467 75.8417 105.231 75.289 104.943 75.0337C104.656 74.7771 104.047 74.6508 103.128 74.6508H102.239V82.7959C102.239 83.4125 102.335 83.7916 102.526 83.9448C102.918 84.1416 103.352 84.2414 103.79 84.2358V84.5307H99.145V84.2358C99.8151 84.1822 100.236 84.0711 100.405 83.9026C100.573 83.7342 100.654 83.3053 100.654 82.616V74.6469H99.7577C98.8731 74.6469 98.2795 74.7771 97.9579 75.0299C97.6362 75.2826 97.3988 75.8379 97.2379 76.6918H96.855L96.9469 73.9883Z" fill="white"/>
<path d="M110.809 77.9861C111.092 78.2646 111.312 78.6005 111.454 78.9711C111.596 79.3416 111.657 79.7383 111.633 80.1344H106.697C106.75 81.3317 107.022 82.2061 107.512 82.7575C107.727 83.013 107.995 83.2187 108.297 83.3602C108.599 83.5017 108.929 83.5757 109.262 83.577C109.755 83.5933 110.239 83.4436 110.637 83.1519C111.055 82.8179 111.406 82.4073 111.671 81.9419L111.943 82.0338C111.707 82.7346 111.297 83.3643 110.752 83.8642C110.468 84.1395 110.132 84.3556 109.764 84.5002C109.396 84.6449 109.003 84.715 108.607 84.7067C108.169 84.7267 107.732 84.6358 107.338 84.4424C106.944 84.2489 106.605 83.9592 106.352 83.6C105.819 82.862 105.54 81.9712 105.555 81.0611C105.538 80.0868 105.865 79.1377 106.478 78.3805C106.762 78.014 107.128 77.7192 107.546 77.5197C107.964 77.3201 108.424 77.2215 108.887 77.2317C109.6 77.2293 110.287 77.5039 110.802 77.9976M107.08 78.5911C106.897 78.9189 106.775 79.2769 106.72 79.648H110.001C109.974 79.2503 109.874 78.861 109.707 78.4992C109.581 78.2762 109.394 78.0937 109.168 77.9729C108.942 77.8522 108.687 77.7983 108.431 77.8176C108.157 77.8067 107.885 77.8727 107.646 78.008C107.408 78.1433 107.211 78.3426 107.08 78.5835" fill="white"/>
<path d="M117.94 77.6914C118.138 77.8022 118.306 77.9601 118.429 78.1511C118.552 78.342 118.626 78.5603 118.644 78.7866C118.644 78.9614 118.58 79.1301 118.464 79.2614C118.395 79.3379 118.31 79.3977 118.214 79.4362C118.119 79.4746 118.016 79.4908 117.913 79.4835C117.735 79.4855 117.563 79.4182 117.434 79.2959C117.283 79.1483 117.179 78.959 117.136 78.7521L117.044 78.3692C117.004 78.1376 116.878 77.9297 116.691 77.7871C116.488 77.6676 116.253 77.6104 116.017 77.6224C115.725 77.6218 115.436 77.6909 115.176 77.8241C114.916 77.9573 114.691 78.1507 114.52 78.3883C114.089 78.9846 113.875 79.71 113.911 80.4447C113.902 81.2019 114.137 81.9419 114.581 82.5547C114.781 82.8508 115.052 83.0917 115.369 83.2551C115.686 83.4184 116.04 83.4989 116.397 83.4891C116.925 83.4933 117.436 83.3055 117.836 82.9606C118.145 82.6731 118.417 82.3475 118.644 81.9918L118.859 82.1258C118.62 82.6602 118.307 83.158 117.928 83.604C117.664 83.9261 117.332 84.1863 116.956 84.3663C116.581 84.5462 116.17 84.6416 115.753 84.6456C115.349 84.6436 114.949 84.5578 114.579 84.3937C114.209 84.2296 113.878 83.9907 113.605 83.6921C113.285 83.3428 113.038 82.9333 112.878 82.4875C112.719 82.0417 112.649 81.5686 112.674 81.0957C112.653 80.0793 113.015 79.0922 113.689 78.3309C114.006 77.9605 114.401 77.6653 114.846 77.4666C115.291 77.2679 115.775 77.1707 116.262 77.182C116.861 77.1672 117.448 77.3429 117.94 77.6837" fill="white"/>
<path d="M119.514 84.3006C119.819 84.2933 120.114 84.1827 120.348 83.9866C120.522 83.6535 120.592 83.2759 120.548 82.9028V75.4393C120.561 75.2204 120.523 75.0015 120.437 74.7998C120.36 74.6619 120.18 74.593 119.885 74.593C119.83 74.5892 119.775 74.5892 119.72 74.593L119.537 74.6198V74.3403L120.379 74.0952C120.716 73.9994 120.946 73.9343 121.076 73.8884L121.823 73.6548V73.7122V78.4952C122.079 78.1869 122.37 77.9105 122.692 77.6718C123.124 77.3684 123.639 77.2053 124.166 77.2047C124.529 77.1751 124.891 77.2615 125.201 77.4516C125.511 77.6416 125.752 77.9253 125.89 78.2616C126.071 78.7299 126.154 79.2303 126.135 79.7321V82.9028C126.097 83.2711 126.164 83.6425 126.326 83.9751C126.532 84.1755 126.805 84.2916 127.092 84.3006V84.5188H123.753V84.3006C124.071 84.2918 124.377 84.1803 124.626 83.9827C124.794 83.6491 124.86 83.2738 124.817 82.9028V79.755C124.835 79.3332 124.748 78.9136 124.565 78.5335C124.467 78.3736 124.326 78.245 124.158 78.1629C123.989 78.0808 123.801 78.0486 123.615 78.0701C123.186 78.0784 122.772 78.2308 122.439 78.5028C122.056 78.7939 121.873 78.9815 121.873 79.0696V82.899C121.873 83.4772 121.938 83.841 122.076 83.9866C122.323 84.1774 122.625 84.2859 122.937 84.2967V84.515H119.51L119.514 84.3006Z" fill="white"/>
<path d="M127.621 84.3008C127.898 84.2884 128.165 84.1923 128.386 84.0251C128.573 83.7561 128.652 83.4268 128.609 83.1022V79.1541C128.624 78.9193 128.593 78.6836 128.517 78.461C128.456 78.3582 128.366 78.2756 128.258 78.2238C128.15 78.1721 128.03 78.1533 127.912 78.17C127.863 78.1662 127.814 78.1662 127.766 78.17L127.586 78.1929V77.921C127.797 77.8598 128.302 77.6989 129.091 77.4385L129.826 77.1973C129.861 77.1973 129.884 77.1973 129.888 77.2356C129.892 77.2724 129.892 77.3098 129.888 77.3466V78.4955C130.232 78.1579 130.607 77.8516 131.006 77.5802C131.378 77.3331 131.815 77.2 132.262 77.1973C132.606 77.1957 132.942 77.3015 133.223 77.4998C133.786 77.8828 134.062 78.595 134.062 79.606V83.2363C134.036 83.5241 134.117 83.8113 134.288 84.0443C134.389 84.1396 134.51 84.2119 134.642 84.2562C134.775 84.3005 134.915 84.3157 135.053 84.3008V84.5191H131.733V84.3008C132.026 84.2858 132.306 84.1755 132.53 83.9868C132.715 83.6773 132.793 83.3152 132.752 82.9567V79.6366C132.766 79.2528 132.682 78.8718 132.507 78.5299C132.411 78.379 132.275 78.2578 132.114 78.18C131.953 78.1022 131.773 78.0709 131.595 78.0895C131.253 78.1006 130.922 78.2155 130.646 78.4189C130.403 78.5956 130.176 78.7929 129.968 79.0086V83.3588C129.947 83.497 129.958 83.6383 130.002 83.7713C130.045 83.9043 130.118 84.0253 130.217 84.1247C130.452 84.2715 130.725 84.3436 131.002 84.3315V84.5498H127.621V84.3008Z" fill="white"/>
<path d="M136.677 78.2962C136.997 77.9464 137.389 77.6699 137.826 77.4855C138.263 77.3011 138.734 77.2132 139.208 77.2278C139.68 77.2128 140.15 77.2947 140.588 77.4686C141.027 77.6425 141.426 77.9047 141.759 78.2388C142.099 78.5945 142.363 79.0154 142.537 79.4761C142.71 79.9368 142.788 80.4277 142.766 80.9194C142.781 81.9025 142.433 82.8568 141.789 83.6C141.481 83.9706 141.093 84.2665 140.654 84.4655C140.215 84.6644 139.736 84.7613 139.254 84.7488C138.78 84.757 138.309 84.6634 137.874 84.4745C137.439 84.2856 137.049 84.0057 136.731 83.6536C136.385 83.2854 136.116 82.8527 135.939 82.3801C135.761 81.9076 135.679 81.4047 135.697 80.9002C135.672 79.9342 136.023 78.9963 136.677 78.2847M137.918 78.0895C137.407 78.5592 137.152 79.3723 137.152 80.5288C137.147 81.4275 137.363 82.3138 137.78 83.1098C138.199 83.9063 138.778 84.3046 139.519 84.3046C139.795 84.3098 140.067 84.2377 140.305 84.0962C140.542 83.9548 140.736 83.7497 140.863 83.5042C141.203 82.859 141.366 82.1347 141.334 81.4057C141.338 80.5249 141.132 79.6557 140.732 78.8706C140.595 78.5219 140.357 78.2224 140.047 78.0107C139.738 77.7991 139.372 77.6851 138.998 77.6835C138.603 77.6759 138.22 77.8214 137.929 78.0895" fill="white"/>
<path d="M143.578 84.3006C143.925 84.2964 144.265 84.1957 144.558 84.0096C144.656 83.8898 144.729 83.7514 144.773 83.6027C144.816 83.454 144.829 83.298 144.811 83.1441V75.5504C144.826 75.3111 144.797 75.0711 144.727 74.842C144.667 74.7306 144.575 74.6398 144.463 74.5817C144.351 74.5236 144.224 74.5008 144.099 74.5165C144.019 74.5169 143.939 74.5246 143.861 74.5394L143.539 74.6084V74.3518C144.236 74.1642 145.071 73.9191 146.063 73.6051C146.071 73.604 146.078 73.6044 146.086 73.6064C146.093 73.6083 146.1 73.6117 146.106 73.6163C146.112 73.6209 146.117 73.6267 146.121 73.6334C146.125 73.64 146.127 73.6473 146.128 73.6548C146.137 73.721 146.137 73.7879 146.128 73.854V83.1748C146.107 83.3288 146.116 83.4856 146.157 83.6357C146.198 83.7858 146.269 83.926 146.366 84.0479C146.655 84.2225 146.989 84.3102 147.327 84.3006V84.5189H143.566L143.578 84.3006Z" fill="white"/>
<path d="M149.058 78.2962C149.378 77.9464 149.77 77.6699 150.206 77.4855C150.643 77.3011 151.115 77.2132 151.589 77.2278C152.06 77.2128 152.53 77.2947 152.969 77.4686C153.408 77.6425 153.806 77.9047 154.139 78.2388C154.481 78.5938 154.746 79.0145 154.92 79.4753C155.094 79.9361 155.172 80.4274 155.15 80.9194C155.164 81.903 154.815 82.8571 154.17 83.6C153.862 83.9708 153.474 84.2669 153.034 84.4658C152.595 84.6648 152.117 84.7616 151.635 84.7488C151.16 84.757 150.69 84.6634 150.254 84.4745C149.819 84.2856 149.429 84.0057 149.111 83.6536C148.416 82.9086 148.043 81.919 148.073 80.9002C148.05 79.9337 148.403 78.9959 149.058 78.2847M150.298 78.0895C149.788 78.5592 149.532 79.3723 149.532 80.5288C149.528 81.4275 149.743 82.3138 150.16 83.1098C150.579 83.9063 151.159 84.3046 151.899 84.3046C152.176 84.3107 152.448 84.2389 152.686 84.0974C152.924 83.9559 153.117 83.7503 153.243 83.5042C153.586 82.8597 153.748 82.1348 153.714 81.4057C153.719 80.5249 153.512 79.6557 153.113 78.8706C152.976 78.5219 152.737 78.2224 152.428 78.0107C152.119 77.7991 151.753 77.6851 151.378 77.6835C150.983 77.6759 150.6 77.8214 150.31 78.0895" fill="white"/>
<path d="M157.103 81.0764C156.844 80.6766 156.711 80.2085 156.72 79.7322C156.732 79.3825 156.813 79.0386 156.959 78.7206C157.106 78.4026 157.314 78.1169 157.571 77.8802C157.829 77.6435 158.131 77.4605 158.461 77.3419C158.79 77.2233 159.139 77.1715 159.489 77.1895C159.919 77.2018 160.344 77.2926 160.741 77.4576C161.158 77.6293 161.604 77.7202 162.055 77.7256H162.549H163.023H163.119V78.3537H161.771C161.867 78.5719 161.936 78.7634 161.99 78.9204C162.075 79.1985 162.12 79.4874 162.124 79.7782C162.117 80.085 162.049 80.3874 161.922 80.6671C161.796 80.9468 161.614 81.1981 161.388 81.4057C161.126 81.6573 160.815 81.8529 160.475 81.9806C160.134 82.1083 159.772 82.1655 159.409 82.1486C159.175 82.1389 158.942 82.1159 158.712 82.0797C158.558 82.0797 158.363 82.2061 158.114 82.4626C157.916 82.6168 157.78 82.8369 157.731 83.083C157.731 83.2515 157.915 83.3702 158.279 83.4659C158.54 83.5187 158.805 83.5443 159.072 83.5425C159.983 83.4999 160.895 83.5759 161.787 83.7685C162.138 83.8471 162.449 84.0485 162.664 84.3364C162.88 84.6243 162.986 84.9797 162.962 85.3385C162.962 86.1542 162.507 86.809 161.591 87.2953C160.742 87.7653 159.789 88.0167 158.819 88.0268C158.108 88.0636 157.403 87.8833 156.797 87.5098C156.303 87.1651 156.054 86.8052 156.054 86.4261C156.058 86.2266 156.128 86.034 156.253 85.8785C156.484 85.5906 156.74 85.324 157.019 85.0819L157.532 84.6224L157.624 84.5305C157.437 84.4608 157.258 84.3695 157.092 84.2586C157 84.1977 156.925 84.1159 156.872 84.02C156.818 83.9241 156.789 83.8168 156.785 83.7072C156.792 83.4493 156.893 83.2028 157.069 83.0141C157.422 82.6107 157.806 82.2356 158.218 81.892C157.766 81.7508 157.377 81.4571 157.119 81.0611M157.942 86.8435C158.485 87.0173 159.053 87.1013 159.623 87.0924C160.35 87.1224 161.073 86.9683 161.725 86.6444C162.261 86.3457 162.53 85.978 162.53 85.5453C162.53 85.1968 162.311 84.9671 161.879 84.8522C161.373 84.7651 160.86 84.7266 160.347 84.7373L159.738 84.7182L159.156 84.6913C159.041 84.6913 158.857 84.6645 158.601 84.6262C158.344 84.5879 158.16 84.5611 158.034 84.5343C157.973 84.5343 157.819 84.699 157.578 85.0245C157.355 85.2803 157.221 85.6014 157.195 85.9397C157.195 86.1519 157.268 86.3577 157.402 86.5223C157.536 86.6869 157.723 86.8003 157.93 86.8435M160.397 81.5053C160.568 81.3378 160.699 81.1336 160.78 80.9081C160.861 80.6825 160.89 80.4415 160.864 80.2033C160.843 79.63 160.713 79.0659 160.481 78.5413C160.4 78.2719 160.234 78.0361 160.007 77.8696C159.781 77.7031 159.506 77.6149 159.225 77.6184C158.995 77.6056 158.767 77.6693 158.577 77.7995C158.388 77.9298 158.246 78.1193 158.175 78.3383C158.068 78.6405 158.018 78.9599 158.026 79.2804C158.017 79.879 158.176 80.4681 158.486 80.9806C158.594 81.2057 158.763 81.3963 158.973 81.5314C159.183 81.6666 159.427 81.741 159.677 81.7465C159.934 81.756 160.186 81.6746 160.389 81.5168" fill="white"/>
<path d="M163.809 77.377H167.087V77.5914C166.893 77.5892 166.699 77.6137 166.512 77.6642C166.271 77.7331 166.152 77.8671 166.152 78.0701C166.154 78.1468 166.167 78.2229 166.19 78.296C166.217 78.3726 166.263 78.4875 166.332 78.6445L168.132 82.5313L169.61 78.61C169.642 78.5177 169.666 78.4229 169.683 78.3267C169.712 78.2281 169.73 78.1266 169.736 78.0241C169.741 77.9657 169.731 77.9071 169.706 77.8541C169.681 77.801 169.643 77.7554 169.595 77.7216C169.488 77.6531 169.365 77.6147 169.239 77.6106L168.997 77.5914V77.377H171.134V77.5914C170.953 77.6074 170.783 77.6875 170.656 77.8173C170.535 77.9715 170.442 78.145 170.38 78.3305L167.933 84.8137C167.64 85.676 167.23 86.4941 166.715 87.2454C166.548 87.4829 166.326 87.6766 166.068 87.8099C165.81 87.9433 165.524 88.0123 165.233 88.0112C164.948 88.0119 164.668 87.9366 164.421 87.793C164.299 87.7263 164.197 87.6261 164.13 87.504C164.062 87.3819 164.03 87.2431 164.038 87.1037C164.035 87.0073 164.054 86.9114 164.093 86.8233C164.132 86.7351 164.191 86.6569 164.264 86.5944C164.424 86.4585 164.629 86.3874 164.839 86.3952C165.043 86.4123 165.243 86.4614 165.432 86.5407C165.611 86.6189 165.801 86.6693 165.995 86.6901C166.284 86.6901 166.586 86.3378 166.903 85.6332C167.135 85.1985 167.295 84.7291 167.378 84.2431C167.376 84.185 167.368 84.1272 167.355 84.0708C167.341 84.0112 167.325 83.9524 167.305 83.8946L164.858 78.5985C164.749 78.3175 164.591 78.0581 164.391 77.8327C164.224 77.6981 164.022 77.6156 163.809 77.5952V77.377Z" fill="white"/>
<path d="M89.671 37.291H79.5613L78.6499 40.7183C78.6499 40.7183 83.2452 40.6456 83.969 40.7183C84.6928 40.7911 85.9029 40.2435 86.1211 40.6111C86.3394 40.9787 85.8646 41.0821 85.0642 41.2277C84.2639 41.3732 82.8393 40.9022 80.6527 41.266C78.4661 41.6297 76.134 44.1074 77.0071 46.5888C77.8802 49.0703 80.4536 48.8482 81.4186 48.8482C82.3836 48.8482 84.1528 48.3733 84.6621 48.3733C85.1714 48.3733 85.2097 48.8482 85.9029 48.8482H90.1152C90.1152 48.8482 92.3401 40.9749 92.5967 39.5159C92.8533 38.0569 91.2832 37.291 89.6442 37.291M85.922 45.4592C85.3843 45.6637 84.8189 45.7864 84.2447 45.823C83.5171 45.823 82.7895 45.9302 82.644 45.4592C82.4985 44.9881 82.2611 44.7277 82.644 44.4022C83.027 44.0767 83.6282 44.1074 84.0992 44.2184C84.5702 44.3295 84.7579 43.8891 84.9761 43.8891C85.1944 43.8891 85.922 43.9274 86.125 44.2184L85.922 45.4592Z" fill="white"/>
<path d="M124.626 37.2987H115.895C114.955 37.3376 114.051 37.6673 113.307 38.2421C112.563 38.8169 112.015 39.6085 111.74 40.5078L110.373 45.6736C109.906 47.4313 111.012 48.8674 112.831 48.8674H121.857C122.789 48.8312 123.686 48.5009 124.419 47.9237C125.151 47.3465 125.682 46.5521 125.936 45.6545L127.161 40.5078C127.279 40.1231 127.302 39.7155 127.227 39.3201C127.153 38.9247 126.984 38.5532 126.735 38.2373C126.486 37.9215 126.164 37.6708 125.796 37.5066C125.429 37.3425 125.027 37.2698 124.626 37.2949M119.621 45.4554H116.596L118.17 40.4771H121.195L119.621 45.4554Z" fill="white"/>
</g>
<defs>
<clipPath id="clip0_89_4660">
<rect width="185.041" height="88" fill="white" transform="translate(0.95874)"/>
</clipPath>
</defs>
</svg>
