<svg width="20" height="20" viewBox="0 0 20 20" fill="none" xmlns="http://www.w3.org/2000/svg">
<path d="M16.2228 3.83145C14.7842 2.33418 12.4409 2.33418 11.0023 3.83145L10.4077 4.45029C10.1685 4.69919 10.1764 5.09484 10.4253 5.33399C10.6742 5.57315 11.0699 5.56525 11.309 5.31635L11.9036 4.69751C12.8504 3.71216 14.3747 3.71216 15.3215 4.69751C16.2817 5.69692 16.2817 7.32724 15.3215 8.32665L12.622 11.1361C12.4722 11.292 12.3091 11.4223 12.1374 11.5278C11.214 12.0954 10.0046 11.9692 9.20415 11.1361C9.07395 11.0006 8.96153 10.8538 8.86676 10.6986C8.68687 10.404 8.30222 10.311 8.00762 10.4909C7.71303 10.6708 7.62004 11.0554 7.79993 11.35C7.9412 11.5814 8.10887 11.8004 8.3028 12.0022C9.51489 13.2637 11.373 13.4649 12.7919 12.5928C13.0542 12.4316 13.3002 12.2344 13.5233 12.0022L16.2228 9.19271C17.648 7.70949 17.648 5.31467 16.2228 3.83145Z" fill="#2E3192"/>
<path d="M11.6972 7.99812C10.2586 6.50084 7.91529 6.50085 6.47663 7.99812L3.77712 10.8076C2.35196 12.2908 2.35196 14.6857 3.77712 16.1689C5.21578 17.6661 7.55904 17.6661 8.9977 16.1689L9.59251 15.5498C9.83167 15.3009 9.82377 14.9053 9.57487 14.6661C9.32597 14.427 8.93032 14.4349 8.69116 14.6838L8.09635 15.3028C7.14956 16.2882 5.62525 16.2882 4.67847 15.3028C3.71818 14.3034 3.71818 12.6731 4.67847 11.6737L7.37798 8.86418C8.32477 7.87882 9.84908 7.87882 10.7959 8.86418C10.926 8.99966 11.0384 9.14645 11.1332 9.30161C11.3131 9.5962 11.6977 9.68917 11.9923 9.50926C12.2869 9.32935 12.3799 8.9447 12.2 8.65012C12.0587 8.41882 11.8911 8.19989 11.6972 7.99812Z" fill="#2E3192"/>
</svg>
