<svg width="24" height="24" viewBox="0 0 24 24" fill="none" xmlns="http://www.w3.org/2000/svg">
<path fill-rule="evenodd" clip-rule="evenodd" d="M12.0002 6.75C9.65303 6.75 7.75024 8.65279 7.75024 11C7.75024 13.3472 9.65303 15.25 12.0002 15.25C14.3475 15.25 16.2502 13.3472 16.2502 11C16.2502 8.65279 14.3475 6.75 12.0002 6.75ZM9.25024 11C9.25024 9.48122 10.4815 8.25 12.0002 8.25C13.519 8.25 14.7502 9.48122 14.7502 11C14.7502 12.5188 13.519 13.75 12.0002 13.75C10.4815 13.75 9.25024 12.5188 9.25024 11Z" fill="#2E3192"/>
<path fill-rule="evenodd" clip-rule="evenodd" d="M12.0013 1.25C8.17513 1.25 4.5248 3.51303 2.99689 7.08468C1.57494 10.4086 2.34472 13.2373 3.94747 15.6595C5.26153 17.6454 7.1781 19.4178 8.90718 21.0168C9.23685 21.3217 9.55985 21.6204 9.87041 21.9129L9.87207 21.9145C10.4471 22.4528 11.2109 22.75 12.0013 22.75C12.7917 22.75 13.5555 22.4528 14.1305 21.9145C14.424 21.6396 14.7283 21.3592 15.0387 21.0732C16.7866 19.4628 18.7302 17.672 20.058 15.6609C21.6588 13.2362 22.4259 10.4045 21.0057 7.08468C19.4778 3.51303 15.8275 1.25 12.0013 1.25ZM4.376 7.67465C5.65482 4.68528 8.74191 2.75 12.0013 2.75C15.2607 2.75 18.3478 4.68528 19.6266 7.67465C20.7986 10.4144 20.2072 12.7124 18.8062 14.8344C17.5886 16.6786 15.8051 18.3242 14.0519 19.9418C13.7342 20.235 13.4175 20.5272 13.1053 20.8195C12.813 21.0932 12.4175 21.25 12.0013 21.25C11.5854 21.25 11.1902 21.0934 10.8979 20.8201C10.5655 20.5069 10.2278 20.1942 9.88915 19.8806C8.15828 18.2778 6.40299 16.6523 5.19841 14.8318C3.79604 12.7124 3.20245 10.4179 4.376 7.67465Z" fill="#2E3192"/>
</svg>
