<svg width="24" height="24" viewBox="0 0 24 24" fill="none" xmlns="http://www.w3.org/2000/svg">
<path d="M14.9939 11.9912C14.9939 12.5432 15.4469 12.9912 15.9989 12.9912C16.5509 12.9912 16.9989 12.5432 16.9989 11.9912C16.9989 11.4392 16.5509 10.9912 15.9989 10.9912H15.989C15.437 10.9912 14.9939 11.4392 14.9939 11.9912Z" fill="#2E3192"/>
<path d="M10.9999 11.9912C10.9999 12.5432 11.4479 12.9912 11.9999 12.9912C12.5519 12.9912 12.9999 12.5432 12.9999 11.9912C12.9999 11.4392 12.5519 10.9912 11.9999 10.9912C11.4469 10.9912 10.9999 11.4392 10.9999 11.9912Z" fill="#2E3192"/>
<path d="M7.00391 11.9912C7.00391 12.5432 7.45689 12.9912 8.00889 12.9912C8.56089 12.9912 9.00889 12.5432 9.00889 11.9912C9.00889 11.4392 8.56089 10.9912 8.00889 10.9912H7.99893C7.44693 10.9912 7.00391 11.4392 7.00391 11.9912Z" fill="#2E3192"/>
<path fill-rule="evenodd" clip-rule="evenodd" d="M3.98099 22.2411C4.03599 22.2431 4.08998 22.2431 4.14398 22.2431L4.14193 22.2451C5.31793 22.2451 6.317 21.929 7.189 21.28L7.25091 21.2361C7.26854 21.2237 7.28622 21.2112 7.30382 21.1988C7.39112 21.1372 7.47657 21.0769 7.54398 21.0311C7.63252 21.0643 7.74859 21.112 7.86691 21.1606C7.88756 21.1691 7.90828 21.1776 7.92894 21.1861L8.05199 21.2371C8.58299 21.4561 9.19691 21.5961 9.77591 21.6321C11.2249 21.7341 12.762 21.7341 14.22 21.6321C18.766 21.3271 22.4149 17.6301 22.7079 13.0291C22.7599 12.1631 22.7599 11.2851 22.7079 10.4161C22.4159 5.81707 18.7659 2.12009 14.2169 1.81509C12.7619 1.72309 11.2279 1.72309 9.77992 1.81509C5.23392 2.11909 1.58493 5.81712 1.29193 10.4181C1.23993 11.2841 1.23993 12.1621 1.29193 13.0311C1.38593 14.4941 1.95595 16.0141 2.98695 17.5501C3.29695 18.1511 2.96995 19.0161 2.63695 19.6411L2.61898 19.6751C2.21204 20.4419 1.91795 20.9962 2.25492 21.5981C2.25792 21.6031 2.26093 21.6083 2.26395 21.6136C2.26697 21.6188 2.26998 21.6241 2.27298 21.6291C2.62898 22.1991 3.21996 22.2181 3.90296 22.2391L3.98099 22.2411ZM3.88563 20.7373C3.84292 20.7362 3.79977 20.7351 3.75795 20.7331C3.81494 20.6201 3.88098 20.494 3.94398 20.376L3.96195 20.3431C4.70595 18.9461 4.81497 17.753 4.28597 16.797C4.27497 16.777 4.26291 16.7581 4.25091 16.7401C3.35791 15.4171 2.86493 14.1361 2.78793 12.9351C2.73993 12.1411 2.73993 11.3001 2.78793 10.5081C3.03293 6.65806 6.08199 3.56304 9.87699 3.30904C11.261 3.22204 12.729 3.22204 14.12 3.30904C17.917 3.56404 20.966 6.65911 21.211 10.5061C21.259 11.3001 21.259 12.1411 21.211 12.9331C20.965 16.7821 17.917 19.8781 14.119 20.1321H14.1169C12.7269 20.2301 11.2619 20.2301 9.87494 20.1321C9.45694 20.1061 9.00194 20.003 8.62494 19.847L8.50296 19.797C7.94333 19.5662 7.66186 19.4501 7.33597 19.5001C7.03848 19.546 6.81969 19.7015 6.38517 20.0105L6.38295 20.0121L6.31498 20.0601C6.31248 20.0616 6.31021 20.0634 6.30795 20.0651C6.30568 20.0668 6.30341 20.0686 6.30091 20.0701C5.64891 20.5561 4.94198 20.7611 4.02298 20.7411L3.94994 20.7391C3.92876 20.7384 3.90725 20.7379 3.88563 20.7373Z" fill="#2E3192"/>
</svg>
