<svg width="64" height="64" viewBox="0 0 64 64" fill="none" xmlns="http://www.w3.org/2000/svg">
<path d="M32 58.6667C29.8182 58.6667 27.7338 57.7863 23.5651 56.0253C13.1884 51.6419 8 49.4502 8 45.7635C8 44.7313 8 26.8388 8 18.6667M32 58.6667C34.1818 58.6667 36.2662 57.7863 40.4349 56.0253C50.8116 51.6419 56 49.4502 56 45.7635V18.6667M32 58.6667L32 30.2797" stroke="#2E3192" stroke-width="4" stroke-linecap="round" stroke-linejoin="round"/>
<path d="M22.2024 25.8438L14.4126 22.0744C10.1375 20.0058 8 18.9714 8 17.3335C8 15.6955 10.1375 14.6612 14.4126 12.5926L22.2024 8.82314C27.0102 6.49671 29.4141 5.3335 32 5.3335C34.5859 5.3335 36.9898 6.49671 41.7975 8.82314L49.5874 12.5926C53.8625 14.6612 56 15.6955 56 17.3335C56 18.9714 53.8625 20.0058 49.5874 22.0744L41.7975 25.8439C36.9898 28.1703 34.5859 29.3335 32 29.3335C29.4141 29.3335 27.0102 28.1703 22.2024 25.8438Z" stroke="#2E3192" stroke-width="4" stroke-linecap="round" stroke-linejoin="round"/>
<path d="M16 32L21.3333 34.6667" stroke="#2E3192" stroke-width="4" stroke-linecap="round" stroke-linejoin="round"/>
<path d="M45.3333 10.6667L18.6666 24.0001" stroke="#2E3192" stroke-width="4" stroke-linecap="round" stroke-linejoin="round"/>
</svg>
