<svg width="64" height="64" viewBox="0 0 64 64" fill="none" xmlns="http://www.w3.org/2000/svg">
<path fill-rule="evenodd" clip-rule="evenodd" d="M50.6532 12.6587C48.5939 10.5994 46.89 8.89535 45.367 7.76739C43.7627 6.57934 42.0638 5.80294 40.0468 6.04313C37.38 6.36071 35.3617 8.13097 33.9047 9.8333C32.7925 11.1328 31.7999 12.6555 31.0113 13.8654C30.8105 14.1735 30.6228 14.4614 30.4498 14.7201C27.1975 17.9192 24.1704 18.984 20.9298 19.301L20.8278 19.3109C18.9909 19.4906 17.468 19.6395 16.2794 19.8728C15.0701 20.1101 13.8856 20.4881 12.95 21.3457C12.055 22.1659 11.5778 23.1863 11.2454 24.2778C10.9328 25.3045 10.6933 26.5948 10.414 28.0992L6.67131 48.2549C6.34024 50.0371 6.05161 51.5908 6.00641 52.8317C5.95833 54.1518 6.16116 55.5863 7.28709 56.7123C8.41304 57.8383 9.84747 58.0411 11.1676 57.993C12.4084 57.9478 13.9621 57.6592 15.7441 57.3281L35.8989 53.5852C37.4032 53.306 38.6934 53.0664 39.7199 52.7538C40.8113 52.4215 41.8316 51.9443 42.6518 51.0495C43.5093 50.114 43.8874 48.9295 44.1249 47.7202C44.3583 46.5314 44.5075 45.0084 44.6874 43.1711L44.6974 43.0693C45.015 39.827 46.0813 36.8002 49.2852 33.5452C49.5423 33.3733 49.828 33.1871 50.1336 32.9878C51.3435 32.1992 52.8663 31.2066 54.1658 30.0944C55.8681 28.6374 57.6384 26.6191 57.956 23.9523C58.1962 21.9353 57.4198 20.2364 56.2317 18.6322C55.1038 17.1091 53.3998 15.4052 51.3405 13.346L50.6532 12.6587ZM48.2595 29.432C49.3829 28.6988 50.5251 27.9454 51.5649 27.0554C53.0338 25.7982 53.8477 24.6243 53.9841 23.4793C54.0537 22.8943 53.9073 22.2145 53.0172 21.0127C52.0877 19.7575 50.6001 18.2625 48.399 16.0614L47.9377 15.6001C45.7366 13.399 44.2416 11.9115 42.9864 10.9819C41.7846 10.0918 41.1048 9.9454 40.5198 10.0151C39.3748 10.1514 38.2009 10.9653 36.9437 12.4342C36.0539 13.4738 35.3007 14.6157 34.5676 15.7388L48.2595 29.432ZM31.945 18.7731C28.4333 21.7651 24.9448 22.9273 21.3191 23.282C19.3543 23.4741 18.0258 23.6063 17.0497 23.7979C16.0723 23.9897 15.769 24.1878 15.6527 24.2944C15.4957 24.4383 15.2989 24.6978 15.0719 25.443C14.8327 26.2288 14.6316 27.2952 14.3269 28.9362L10.6315 48.8378C10.4825 49.6401 10.3563 50.3241 10.2569 50.9145L22.738 38.4334C22.0815 37.3769 21.6621 36.2043 21.4644 34.987C21.2874 33.8967 22.0278 32.8693 23.1181 32.6923C24.2084 32.5153 25.2357 33.2557 25.4128 34.346C25.5944 35.4647 26.069 36.4333 26.8177 37.1821C27.5665 37.9308 28.5351 38.4054 29.6538 38.5871C30.7441 38.7641 31.4845 39.7914 31.3075 40.8817C31.1305 41.972 30.1031 42.7124 29.0128 42.5354C27.7955 42.3377 26.6229 41.9183 25.5664 41.2618L13.0859 53.7423C13.6759 53.6429 14.3595 53.5168 15.1612 53.368L35.0618 49.6723C36.7027 49.3676 37.769 49.1666 38.5547 48.9273C39.2998 48.7004 39.5593 48.5036 39.7031 48.3467C39.8097 48.2304 40.0078 47.9271 40.1998 46.9494C40.3915 45.9731 40.5239 44.6445 40.7164 42.6794C41.0716 39.0533 42.2347 35.5668 45.2264 32.0557L31.945 18.7731Z" fill="#2E3192"/>
</svg>
