<svg width="102" height="48" viewBox="0 0 102 48" fill="none" xmlns="http://www.w3.org/2000/svg">
<g clip-path="url(#clip0_164_1171)">
<path d="M4.60718 15.7581L8.77459 16.5785L18.1777 3.08819L42.1941 4.86016L15.7494 0L4.60718 15.7581Z" fill="#2E3192"/>
<path d="M10.0251 16.8228L14.3165 17.6686L21.7872 6.80346L45.213 8.81607L18.7319 3.646L10.0251 16.8228Z" fill="#2E3192"/>
<path d="M15.527 17.9092L18.1777 18.4306L24.5655 10.0994L44.2432 11.9735L22.9321 7.28833L15.527 17.9092Z" fill="#2E3192"/>
<path d="M41.443 32.2417L37.2756 31.4214L27.8725 44.9117L3.85608 43.1397L30.3044 47.9999L41.443 32.2417Z" fill="#2E3192"/>
<path d="M36.0286 31.1772L31.7336 30.3313L24.2629 41.1965L0.837158 39.1839L27.3183 44.3539L36.0286 31.1772Z" fill="#2E3192"/>
<path d="M30.5232 30.0907L27.8725 29.5693L21.4883 37.9005L1.81067 36.0265L23.1181 40.7116L30.5232 30.0907Z" fill="#2E3192"/>
<path d="M34.6285 24.5195L7.34891 19.7833L4.92065 17.0925L31.9305 21.8324L34.6285 24.5195Z" fill="#2E3192"/>
<path d="M37.91 27.8193L10.6304 23.0831L8.20215 20.3923L35.2119 25.1285L37.91 27.8193Z" fill="#2E3192"/>
<path d="M41.1878 31.1189L13.9082 26.379L11.48 23.6919L38.4898 28.4281L41.1878 31.1189Z" fill="#2E3192"/>
<path d="M56.822 28.5994H62.3749L60.9493 35.5049H65.8459C67.1621 35.5049 68.1684 35.8696 68.0663 37.0691C67.9642 38.2686 65.8787 46.5123 65.8787 46.5123H60.7269C60.7269 46.5123 62.1853 40.2958 62.4296 39.5338C62.484 39.3641 62.4961 39.1837 62.4649 39.0082C62.4337 38.8327 62.3601 38.6675 62.2505 38.527C62.1409 38.3865 61.9986 38.2749 61.836 38.2019C61.6734 38.1289 61.4954 38.0967 61.3175 38.1082C60.5555 38.1082 60.2237 38.3525 60.0852 38.8374C59.9466 39.3223 57.934 46.4941 57.934 46.4941H52.6582L56.822 28.5994Z" fill="#2E3192"/>
<path d="M99.5024 35.5123H91.1858C90.2914 35.5499 89.4307 35.864 88.7222 36.4112C88.0137 36.9584 87.4923 37.7118 87.2299 38.5677L85.9282 43.4862C85.4871 45.1597 86.5371 46.527 88.2726 46.527H96.8627C97.7501 46.4926 98.6038 46.1781 99.3013 45.6285C99.9989 45.079 100.505 44.3226 100.746 43.468L101.916 38.5677C102.027 38.2015 102.048 37.8138 101.977 37.4377C101.906 37.0615 101.745 36.7082 101.508 36.4077C101.271 36.1072 100.965 35.8685 100.616 35.712C100.266 35.5555 99.8845 35.4857 99.5024 35.5087M94.7407 43.282H91.8603L93.3552 38.5422H96.2356L94.7407 43.282Z" fill="#2E3192"/>
<path d="M49.5299 35.5051H39.9044L39.0366 38.7683C39.0366 38.7683 43.4119 38.699 44.101 38.7683C44.7901 38.8376 45.9422 38.3162 46.15 38.6662C46.3579 39.0162 45.9058 39.1147 45.1437 39.2532C44.3817 39.3918 43.0254 38.9433 40.9435 39.2897C38.8616 39.6361 36.6412 41.9951 37.4725 44.3577C38.3038 46.7203 40.7539 46.5088 41.6727 46.5088C42.5915 46.5088 44.276 46.0567 44.7609 46.0567C45.2458 46.0567 45.2823 46.5088 45.9422 46.5088H49.9528C49.9528 46.5088 52.0712 39.0126 52.3155 37.6235C52.5598 36.2343 51.0649 35.5051 49.5044 35.5051M45.9604 43.2821C45.4485 43.4769 44.9101 43.5937 44.3635 43.6285C43.6707 43.6285 42.978 43.7306 42.8394 43.2821C42.7009 42.8336 42.4748 42.5857 42.8394 42.2758C43.204 41.9659 43.7765 41.9951 44.2249 42.1008C44.6734 42.2065 44.852 41.7872 45.0599 41.7872C45.2677 41.7872 45.9604 41.8237 46.1537 42.1008L45.9604 43.2821Z" fill="#2E3192"/>
<path d="M82.8108 35.5124H74.4979C73.6033 35.5495 72.7423 35.8633 72.0337 36.4106C71.3251 36.9579 70.8039 37.7116 70.542 38.5678L69.2403 43.4863C68.7955 45.1598 69.8492 46.5271 71.5811 46.5271H80.1748C81.0621 46.4927 81.9158 46.1781 82.6134 45.6286C83.311 45.079 83.8166 44.3227 84.0578 43.468L85.2245 38.5678C85.3366 38.2015 85.3583 37.8135 85.2877 37.437C85.217 37.0605 85.0562 36.7068 84.8189 36.4061C84.5816 36.1054 84.275 35.8666 83.9253 35.7104C83.5755 35.5541 83.1932 35.4849 82.8108 35.5087M78.0455 43.2785H75.1651L76.6636 38.5386H79.544L78.0455 43.2785Z" fill="#2E3192"/>
</g>
<defs>
<clipPath id="clip0_164_1171">
<rect width="101.163" height="48" fill="white" transform="translate(0.837158)"/>
</clipPath>
</defs>
</svg>
