<svg width="12" height="12" viewBox="0 0 12 12" fill="none" xmlns="http://www.w3.org/2000/svg">
<path d="M4.68747 2.36935C5.25851 1.33847 6.74142 1.33847 7.31247 2.36935L7.71481 3.09493C7.92161 3.46826 8.27721 3.73647 8.69333 3.83126L9.58786 4.03439C10.6859 4.2844 11.1276 5.61081 10.3984 6.46896L9.7109 7.27755C9.44825 7.58663 9.32144 7.98904 9.36032 8.39278L9.457 9.39474C9.56807 10.5483 8.38543 11.3867 7.33395 10.8996L6.63083 10.5744C6.23084 10.3891 5.76909 10.3891 5.36911 10.5744L4.66598 10.8996C3.61451 11.3867 2.43186 10.5482 2.54294 9.39474L2.63961 8.39278C2.67849 7.98904 2.55169 7.58663 2.28903 7.27755L1.60153 6.46896C0.872289 5.61081 1.31404 4.2844 2.41208 4.03439L3.30661 3.83126C3.72274 3.73647 4.07831 3.46827 4.28512 3.09493L4.68747 2.36935Z" fill="#FF9800"/>
</svg>
