<svg width="64" height="64" viewBox="0 0 64 64" fill="none" xmlns="http://www.w3.org/2000/svg">
<path fill-rule="evenodd" clip-rule="evenodd" d="M3.33337 31.9997C3.33337 16.1675 16.1679 3.33301 32 3.33301C33.9608 3.33301 35.8778 3.53017 37.7313 3.90643C38.8138 4.12617 39.5131 5.18185 39.2934 6.26434C39.0736 7.34683 38.018 8.04622 36.9355 7.82647C35.3425 7.5031 33.6921 7.33301 32 7.33301C18.377 7.33301 7.33337 18.3766 7.33337 31.9997C7.33337 45.6226 18.377 56.6663 32 56.6663C45.6229 56.6663 56.6667 45.6226 56.6667 31.9997C56.6667 30.3077 56.4965 28.6572 56.1733 27.064C55.9537 25.9815 56.6532 24.9259 57.7357 24.7063C58.8182 24.4867 59.8738 25.1862 60.0934 26.2687C60.4694 28.1219 60.6667 30.0388 60.6667 31.9997C60.6667 47.8317 47.8321 60.6663 32 60.6663C16.1679 60.6663 3.33337 47.8317 3.33337 31.9997ZM32 20.6663C25.7408 20.6663 20.6667 25.7405 20.6667 31.9997C20.6667 38.2588 25.7408 43.333 32 43.333C38.2592 43.333 43.3334 38.2588 43.3334 31.9997C43.3334 30.8951 44.2288 29.9997 45.3334 29.9997C46.4379 29.9997 47.3334 30.8951 47.3334 31.9997C47.3334 40.468 40.4683 47.333 32 47.333C23.5317 47.333 16.6667 40.468 16.6667 31.9997C16.6667 23.5313 23.5317 16.6663 32 16.6663C33.1046 16.6663 34 17.5618 34 18.6663C34 19.7709 33.1046 20.6663 32 20.6663ZM53.0755 5.69133C52.4095 3.55299 49.746 2.56237 47.8703 4.09512C45.9391 5.67324 43.6259 7.74672 42.3229 10.4533C41.1256 12.9402 40.8466 15.8149 42.0928 19.059L30.6666 30.4853C29.8855 31.2664 29.8855 32.5327 30.6666 33.3137C31.4476 34.0948 32.7139 34.0948 33.495 33.3137L44.8667 21.942C48.3231 23.2337 51.2835 22.8912 53.7936 21.6068C56.4203 20.2627 58.3864 17.9598 59.8693 16.1693C61.4326 14.2817 60.4345 11.5448 58.2214 10.905C58.1962 10.8977 58.1709 10.8909 58.1455 10.8846L54.2546 9.92357L53.0928 5.74975C53.0873 5.73019 53.0816 5.71072 53.0755 5.69133ZM51.9715 18.0459C50.4564 18.8212 48.5912 19.1304 46.0232 18.101C44.9294 15.6255 45.1749 13.7505 45.9269 12.1884C46.6788 10.6266 48.0028 9.24147 49.5426 7.9123L50.7143 12.1215C50.9079 12.8167 51.4609 13.3537 52.1615 13.5268L56.0554 14.4886C54.7781 15.9729 53.482 17.273 51.9715 18.0459Z" fill="#2E3192"/>
</svg>
