<svg width="64" height="64" viewBox="0 0 64 64" fill="none" xmlns="http://www.w3.org/2000/svg">
<path fill-rule="evenodd" clip-rule="evenodd" d="M38.5022 31.8478C38.8596 31.9465 39.209 31.9918 39.553 31.9918C41.0004 31.9918 42.3919 31.1874 44.3027 30.0792L44.3155 30.0718L53.433 24.7678L53.4728 24.7436C55.9075 23.3303 57.3796 22.4743 57.8569 20.6103C58.3609 18.741 57.4515 17.1731 56.0835 14.8158L52.0462 7.77853C50.7102 5.47453 49.825 3.95163 48.009 3.47696C46.1375 2.96848 44.5715 3.87664 42.2101 5.24615L42.1983 5.25301L33.0382 10.5837C30.6088 11.9917 29.1422 12.8425 28.6382 14.6798C28.4869 15.2181 28.4564 15.7316 28.5228 16.2481L20.5621 20.8798C18.2581 22.2158 16.7302 23.1038 16.2556 24.9465C16.111 25.4735 16.0826 25.9774 16.1476 26.4842L9.45888 30.3647C8.34955 31.002 7.54946 31.4635 6.97346 32.1835L6.9443 32.2207C6.19763 33.1994 5.87227 34.4527 6.0456 35.6634C6.14903 36.5386 6.53997 37.2187 7.17904 38.3304L7.18961 38.3488L7.37086 38.666C7.98904 39.7425 8.40314 40.4636 9.11747 41.01C9.92814 41.658 10.8988 41.9967 11.9068 41.9967L11.9042 41.9941C12.1175 41.9941 12.3309 41.9808 12.5469 41.9488C13.4768 41.8428 14.2198 41.4052 15.3304 40.751L15.3521 40.7382L22.0938 36.8275C22.5029 37.1368 22.9588 37.3636 23.4954 37.5012C23.8527 37.5972 24.1994 37.6423 24.5407 37.6423C25.5666 37.6423 26.5607 37.2398 27.7311 36.6119L18.1767 57.844C17.7234 58.8513 18.1725 60.0353 19.1798 60.4886C20.187 60.9418 21.3711 60.4927 21.8243 59.4854L32.0005 36.8718L42.1766 59.4854C42.6299 60.4927 43.8139 60.9418 44.8212 60.4886C45.8285 60.0353 46.2776 58.8513 45.8243 57.844L34.5067 32.6937L37.1099 31.1791C37.5165 31.4859 37.9695 31.711 38.5022 31.8478ZM17.7325 30.2284C17.8023 30.3517 17.8736 30.4772 17.9462 30.6051L18.1585 30.9707L19.6748 33.6129L13.3841 37.2608L13.3203 37.298C12.7977 37.6074 12.2562 37.9275 12.0696 37.9835L11.9896 37.9941C11.8509 38.0155 11.7255 37.9782 11.6055 37.8822L11.5683 37.8527C11.448 37.7351 11.1507 37.2174 10.8576 36.707L10.6312 36.3133C10.3538 35.8312 10.0731 35.3433 10.0136 35.1621L10.0029 35.1061C9.98156 34.9648 10.0189 34.8049 10.1016 34.6796C10.2696 34.5169 10.9763 34.1089 11.4563 33.8342L17.7175 30.2022L17.7325 30.2284ZM21.7794 29.2348L22.8714 31.1119C23.4954 32.2105 24.2049 33.4583 24.5115 33.6316L24.5407 33.6371H24.5595C24.9229 33.6371 26.2254 32.8825 27.2811 32.2709L27.298 32.2611L34.6975 27.9574L34.5843 27.7592L33.7742 26.3492L30.321 20.3678L30.0929 19.9659L22.5753 24.3384L22.5623 24.346C21.4988 24.9628 20.2974 25.6596 20.1274 25.9624V25.9785H20.1222C20.1245 26.2833 20.6217 27.2015 21.1447 28.1282L21.7794 29.2348ZM32.4916 15.7465C32.5011 16.0099 32.8549 16.7036 33.2783 17.4678L35.819 21.8914L37.8783 25.4585C38.5023 26.5571 39.2117 27.8051 39.5184 27.9811L39.5582 27.9892C39.9049 27.9972 41.2968 27.197 42.3048 26.6103L51.465 21.2798C52.569 20.6398 53.8224 19.9118 53.985 19.6051L53.9929 19.5678C54.0195 19.2265 53.2435 17.885 52.6168 16.8077L48.585 9.77853L48.5553 9.72733C47.9522 8.68959 47.2813 7.53519 46.977 7.33582H46.9637C46.633 7.30382 45.2835 8.08239 44.2061 8.70639L34.977 14.0759C33.9439 14.6771 32.5777 15.4722 32.4889 15.7436L32.4916 15.7465Z" fill="#2E3192"/>
</svg>
