<svg width="24" height="24" viewBox="0 0 24 24" fill="none" xmlns="http://www.w3.org/2000/svg">
<path d="M12.492 0.771802C13.7198 0.753052 14.9385 0.762802 16.1565 0.753052C16.197 2.2763 16.815 3.6473 17.7983 4.6628L17.7968 4.6613C18.855 5.61455 20.232 6.23255 21.75 6.33755L21.771 6.33905V10.116C20.337 10.08 18.9885 9.7493 17.7728 9.1808L17.8343 9.2063C17.2463 8.92355 16.749 8.6333 16.2765 8.3093L16.3155 8.3348C16.3065 11.0715 16.3245 13.8083 16.2968 16.5353C16.2195 17.925 15.7575 19.1925 15.0165 20.2508L15.0315 20.2275C13.7925 22.002 11.7855 23.1668 9.50325 23.2358H9.49275C9.4005 23.2403 9.29176 23.2425 9.18225 23.2425C7.88476 23.2425 6.67201 22.881 5.6385 22.2533L5.66851 22.2705C3.78751 21.1388 2.49 19.2023 2.25 16.95L2.247 16.9193C2.22825 16.4505 2.21925 15.9818 2.238 15.5228C2.6055 11.9385 5.60851 9.1658 9.25876 9.1658C9.66901 9.1658 10.071 9.20105 10.4618 9.2678L10.4198 9.2618C10.4385 10.6485 10.3823 12.036 10.3823 13.4228C10.065 13.308 9.69901 13.2413 9.31726 13.2413C7.91625 13.2413 6.72451 14.1368 6.28351 15.387L6.27676 15.4095C6.17701 15.7298 6.11926 16.098 6.11926 16.479C6.11926 16.6335 6.12901 16.7865 6.14701 16.9365L6.14551 16.9185C6.39451 18.453 7.71001 19.611 9.29626 19.611C9.34201 19.611 9.38701 19.6103 9.432 19.608H9.42526C10.5225 19.575 11.475 18.9848 12.0135 18.1125L12.021 18.099C12.2213 17.82 12.3585 17.4825 12.4043 17.1158L12.405 17.1053C12.4988 15.4275 12.4613 13.7595 12.4703 12.0818C12.4793 8.3048 12.4613 4.5368 12.489 0.769552L12.492 0.771802Z" fill="white"/>
</svg>
