<svg width="64" height="64" viewBox="0 0 64 64" fill="none" xmlns="http://www.w3.org/2000/svg">
<path d="M5.33325 58.6667H34.6666C47.9214 58.6667 58.6666 47.9216 58.6666 34.6667C58.6666 21.4119 47.9214 10.6667 34.6666 10.6667C22.3131 10.6667 11.9931 20.0002 10.6666 32.0001" stroke="#2E3192" stroke-width="4" stroke-linecap="round"/>
<path d="M49.3334 14.6667L52.0001 12M14.6667 12L17.3334 14.6667" stroke="#2E3192" stroke-width="4" stroke-linecap="round" stroke-linejoin="round"/>
<path d="M44.0004 24L36.1622 31.8382M36.1622 31.8382C35.4383 31.1144 34.4383 30.6667 33.3337 30.6667C31.1246 30.6667 29.3337 32.4575 29.3337 34.6667C29.3337 36.8758 31.1246 38.6667 33.3337 38.6667C35.5429 38.6667 37.3337 36.8758 37.3337 34.6667C37.3337 33.5621 36.886 32.5621 36.1622 31.8382Z" stroke="#2E3192" stroke-width="4" stroke-linecap="round"/>
<path d="M33.3333 9.33325V5.33325" stroke="#2E3192" stroke-width="4" stroke-linecap="round" stroke-linejoin="round"/>
<path d="M28 5.33325H38.6667" stroke="#2E3192" stroke-width="4" stroke-linecap="round" stroke-linejoin="round"/>
<path d="M5.33325 40H13.3333" stroke="#2E3192" stroke-width="4" stroke-linecap="round" stroke-linejoin="round"/>
<path d="M5.33325 50.6667H18.6666" stroke="#2E3192" stroke-width="4" stroke-linecap="round" stroke-linejoin="round"/>
</svg>
