<svg width="64" height="64" viewBox="0 0 64 64" fill="none" xmlns="http://www.w3.org/2000/svg">
<path fill-rule="evenodd" clip-rule="evenodd" d="M8.21362 12.0003C7.54696 12.1337 7.01378 12.6136 6.77378 13.2269C5.20044 17.2802 6.05378 22.0802 9.30711 25.3602C12.2441 28.2733 16.3783 29.2622 20.1209 28.3076L22.8928 31.0795L8.98682 44.9854C6.77349 47.1721 6.77349 50.7188 8.98682 52.9055L11.0933 55.012C13.28 57.2253 16.8267 57.2253 19.0134 55.012L32.9193 41.106L35.6931 43.8798C34.7385 47.6224 35.7273 51.7566 38.6404 54.6936C41.9204 57.9469 46.7204 58.8002 50.7738 57.2269C51.3871 56.9869 51.867 56.4537 52.0003 55.7871C52.1337 55.1204 51.9204 54.427 51.4404 53.947L48.2404 50.747V48.2404H50.747L53.947 51.4404C54.427 51.9204 55.1204 52.1337 55.7871 52.0003C56.4537 51.867 56.9869 51.3871 57.2269 50.7738C58.8002 46.7204 57.9469 41.9204 54.6936 38.6404C51.7509 35.7217 47.5848 34.7347 43.832 35.6987L37.4792 29.3458L47.9992 18.8258L49.2538 20.0804C49.6805 20.507 50.2939 20.7205 50.9072 20.6405C51.5205 20.5872 52.0539 20.2138 52.3739 19.7072L56.3739 13.0405C56.8539 12.2405 56.7204 11.2271 56.0804 10.5871L53.4137 7.92046C52.7737 7.28046 51.7603 7.14697 50.9603 7.62697L44.2936 11.627C43.787 11.947 43.4137 12.4803 43.3603 13.0936C43.2803 13.707 43.4938 14.3204 43.9205 14.747L45.1727 15.9992L34.6526 26.5193L28.302 20.1687C29.266 16.4159 28.279 12.2498 25.3602 9.30711C22.0802 6.05378 17.2802 5.20044 13.2269 6.77378C12.6136 7.01378 12.1337 7.54696 12.0003 8.21362C11.867 8.88029 12.0802 9.57373 12.5602 10.0537L15.7602 13.2537V15.7602H13.2537L10.0537 12.5602C9.57373 12.0802 8.88029 11.867 8.21362 12.0003ZM30.0928 38.2795L16.1868 52.1854C15.5468 52.8254 14.5335 52.8254 13.9202 52.1854L11.8134 50.0787C11.1734 49.4653 11.1734 48.452 11.8134 47.812L25.7193 33.906L30.0928 38.2795ZM12.1602 22.5071C14.2669 24.6404 17.3604 25.2004 19.9738 24.1871C20.7204 23.8937 21.5471 24.0536 22.1071 24.6136L39.3871 41.8936C39.9471 42.4536 40.107 43.2802 39.8136 44.0269C38.8003 46.6402 39.3602 49.7338 41.4936 51.8404C42.6969 53.059 44.2221 53.7642 45.7959 53.9561L44.8269 52.9871C44.4536 52.6137 44.2404 52.1071 44.2404 51.5738V46.2404C44.2404 45.1471 45.1471 44.2404 46.2404 44.2404H51.5738C52.1071 44.2404 52.6137 44.4536 52.9871 44.8269L53.9561 45.7959C53.7642 44.2221 53.059 42.6969 51.8404 41.4936C49.7338 39.3602 46.6403 38.8004 44.0003 39.8404C43.2803 40.1071 42.427 39.9471 41.867 39.3871L24.6136 22.1337C24.0536 21.5737 23.8936 20.7203 24.1602 20.0003C25.2002 17.3603 24.6404 14.2669 22.5071 12.1602C21.3038 10.9417 19.7786 10.2365 18.2048 10.0446L19.1738 11.0136C19.5471 11.387 19.7602 11.8936 19.7602 12.4269V17.7602C19.7602 18.8536 18.8536 19.7602 17.7602 19.7602H12.4269C11.8936 19.7602 11.387 19.5471 11.0136 19.1738L10.0446 18.2048C10.2365 19.7786 10.9417 21.3038 12.1602 22.5071ZM48.5571 13.7305L51.6906 11.8505L52.1504 12.3102L50.2703 15.4437L48.5571 13.7305Z" fill="#2E3192"/>
</svg>
