<svg width="61" height="42" viewBox="0 0 61 42" fill="none" xmlns="http://www.w3.org/2000/svg">
<path d="M55.2858 1H5.57146C2.96784 1 0.857178 3.11066 0.857178 5.71429V36.5714C0.857178 39.1751 2.96784 41.2857 5.57146 41.2857H55.2858C57.8894 41.2857 60 39.1751 60 36.5714V5.71429C60 3.11066 57.8894 1 55.2858 1Z" fill="white" stroke="#D9D9D9" stroke-width="0.857143"/>
<path fill-rule="evenodd" clip-rule="evenodd" d="M18.6389 28.4424H15.0041L12.2783 18.0438C12.149 17.5655 11.8743 17.1425 11.4702 16.9433C10.4618 16.4424 9.3506 16.0438 8.13843 15.8428V15.4424H13.9938C14.802 15.4424 15.4081 16.0438 15.5091 16.7423L16.9234 24.2431L20.5565 15.4424H24.0902L18.6389 28.4424ZM26.1106 28.4424H22.6778L25.5045 15.4424H28.9373L26.1106 28.4424ZM33.3785 19.0438C33.4795 18.3437 34.0856 17.9433 34.7927 17.9433C35.9039 17.8427 37.1143 18.0438 38.1245 18.5429L38.7306 15.7439C37.7204 15.3436 36.6093 15.1426 35.6009 15.1426C32.2691 15.1426 29.8446 16.9433 29.8446 19.4424C29.8446 21.3437 31.5619 22.3419 32.7742 22.9433C34.0856 23.5429 34.5907 23.9433 34.4897 24.5429C34.4897 25.4424 33.4795 25.8428 32.4711 25.8428C31.2589 25.8428 30.0467 25.543 28.9373 25.0421L28.3312 27.8428C29.5433 28.3419 30.8549 28.543 32.067 28.543C35.8029 28.6417 38.1245 26.8427 38.1245 24.1426C38.1245 20.7422 33.3785 20.5429 33.3785 19.0438ZM50.1384 28.4424L47.4127 15.4424H44.4851C43.8789 15.4424 43.2728 15.8428 43.0708 16.4424L38.0235 28.4424H41.5573L42.2627 26.5429H46.6046L47.0087 28.4424H50.1384ZM44.9901 18.9433L45.9985 23.8427H43.1718L44.9901 18.9433Z" fill="#172B85"/>
</svg>
