<svg width="39" height="40" viewBox="0 0 39 40" fill="none" xmlns="http://www.w3.org/2000/svg">
<path d="M19.3 37.1C28.9098 37.1 36.7 29.3097 36.7 19.7C36.7 10.0902 28.9098 2.3 19.3 2.3C9.69027 2.3 1.90002 10.0902 1.90002 19.7C1.90002 29.3097 9.69027 37.1 19.3 37.1Z" stroke="white" stroke-width="2.91667"/>
<path d="M3.39994 29.6L0.639954 39.38L10.78 36.56L11.3199 33.44L4.71991 35.54L6.45992 29.24L3.39994 29.6Z" fill="white"/>
<path d="M4.60004 35.6C4.60004 35.54 6.70004 28.58 6.70004 28.58L11.7401 33.32L4.60004 35.6Z" fill="#27D045"/>
<path d="M11.7809 11.0798C11.1682 11.5049 10.646 12.0472 10.2443 12.6755C9.84265 13.3037 9.56957 14.0053 9.44084 14.7398C9.14084 17.0798 10.5809 19.4798 10.5809 19.4798C12.0415 21.653 13.7758 23.6292 15.7408 25.3598C17.4598 26.72 19.4114 27.7568 21.5008 28.4198C22.7196 28.9064 24.0528 29.0314 25.3408 28.7798C26.4824 28.4664 27.4924 27.793 28.2208 26.8598C28.3915 26.4352 28.5124 25.9922 28.5808 25.5398C28.6495 25.1427 28.6495 24.7368 28.5808 24.3398C28.5208 23.9198 24.2008 21.9398 23.7808 22.0598C23.3608 22.1798 23.0008 22.9598 22.5208 23.6198C22.0408 24.2798 21.8608 24.5798 21.3808 24.5798C20.9008 24.5798 18.8008 23.7398 16.8208 21.9398C15.6899 20.9592 14.806 19.7258 14.2408 18.3398C14.2408 18.3398 14.6009 17.9198 15.0809 17.2598C15.4543 16.8505 15.7221 16.3562 15.8608 15.8198C15.8608 15.5198 14.1808 11.2598 13.7608 11.0798C13.104 10.9875 12.4376 10.9875 11.7809 11.0798Z" fill="white"/>
</svg>
